<?xml version="1.0" encoding="UTF-8"?>
<svg version="1.1" xmlns="http://www.w3.org/2000/svg" width="1024" height="1024">
<path d="M0 0 C5.44962015 0.21878037 9.21218951 1.91847634 13.625 4.9375 C14.23053711 5.33936523 14.83607422 5.74123047 15.45996094 6.15527344 C20.06068283 9.25195923 24.47341564 12.57355055 28.83813477 15.99487305 C45.81706607 29.29381597 63.66564867 41.857904 81.89453125 53.37890625 C85.39625103 55.59859067 88.86157583 57.87240212 92.32421875 60.15234375 C92.89426636 60.52720413 93.46431396 60.90206451 94.05163574 61.2882843 C98.73601741 64.36881707 98.73601741 64.36881707 101.01080322 65.87295532 C108.75534628 70.99865196 108.75534628 70.99865196 116.79296875 75.640625 C120.40993472 77.59092178 123.55785534 79.86479924 126.80273438 82.37548828 C131.26516353 85.6747109 136.03424294 88.51836323 140.75 91.4375 C141.75804687 92.06720703 142.76609375 92.69691406 143.8046875 93.34570312 C150.79589066 97.69508975 157.87515111 101.8741859 165 106 C166.40855766 106.82641346 167.81623025 107.65433898 169.22265625 108.484375 C172.72267869 110.54982255 176.22566817 112.61015042 179.73046875 114.66748047 C181.23096436 115.54847283 182.73097319 116.43029486 184.23046875 117.31298828 C203.62197308 128.71353457 223.39831115 139.28847057 243.5 149.375 C244.2519162 149.75359161 245.0038324 150.13218323 245.77853394 150.52224731 C254.91608121 155.11581018 264.1185214 159.45395189 273.51367188 163.49511719 C277.54568123 165.23554475 281.53110598 167.05865549 285.5 168.9375 C286.14324219 169.23978516 286.78648437 169.54207031 287.44921875 169.85351562 C288.96703748 170.56711697 290.48367449 171.28323119 292 172 C292 171.01 292 170.02 292 169 C290.68 169 289.36 169 288 169 C288 168.34 288 167.68 288 167 C287.34 166.34 286.68 165.68 286 165 C285.67 164.34 285.34 163.68 285 163 C284.01 162.67 283.02 162.34 282 162 C281.360625 161.195625 280.72125 160.39125 280.0625 159.5625 C277.97955206 156.97459498 276.87902191 156.39588941 274 155 C272.84957824 153.84957824 271.702408 152.69567018 270.57421875 151.5234375 C267.91331907 148.9483733 264.97428801 146.72643411 262.0703125 144.43359375 C258.37675752 141.50600501 254.71869589 138.53651529 251.0625 135.5625 C250.37744385 135.00667236 249.6923877 134.45084473 248.98657227 133.87817383 C245.84191905 131.32438184 242.70558093 128.76247617 239.59765625 126.1640625 C238.61667969 125.34679687 237.63570312 124.52953125 236.625 123.6875 C235.77164062 122.96949219 234.91828125 122.25148438 234.0390625 121.51171875 C232.15528278 119.80148042 232.15528278 119.80148042 230 120 C230 119.01 230 118.02 230 117 C229.41734375 116.731875 228.8346875 116.46375 228.234375 116.1875 C225.97213399 114.98519009 224.19423682 113.66174087 222.25 112 C221.63640625 111.484375 221.0228125 110.96875 220.390625 110.4375 C219 109 219 109 219 107 C218.46890625 106.79375 217.9378125 106.5875 217.390625 106.375 C213.99226564 104.42038808 211.48944072 101.77876283 208.75 99 C208.19570313 98.4534375 207.64140625 97.906875 207.0703125 97.34375 C203 93.2533867 203 93.2533867 203 91 C202.01 90.67 201.02 90.34 200 90 C198.45882932 88.28285771 196.98770149 86.50204827 195.5625 84.6875 C192.3950419 80.6692547 192.3950419 80.6692547 188.90625 76.9375 C186.24634284 74.23398781 184.44829689 71.14034323 182.46484375 67.92578125 C181.06349083 65.70804031 181.06349083 65.70804031 178 65 C177.43505859 63.1652832 177.43505859 63.1652832 177 61 C176.39060593 59.76236634 175.7340385 58.54715099 175.0390625 57.35546875 C174.64976562 56.67806641 174.26046875 56.00066406 173.859375 55.30273438 C173.24835938 54.25569336 173.24835938 54.25569336 172.625 53.1875 C164.52576446 39.27510346 164.52576446 39.27510346 164.8125 33.0625 C164.85310547 31.90427734 164.85310547 31.90427734 164.89453125 30.72265625 C164.92933594 30.15417969 164.96414063 29.58570313 165 29 C169.58380366 28.69661156 171.89712736 29.10844047 175.5625 31.875 C176.86574219 32.84373047 176.86574219 32.84373047 178.1953125 33.83203125 C179.12085938 34.54746094 180.04640625 35.26289063 181 36 C182.41925781 37.08861328 182.41925781 37.08861328 183.8671875 38.19921875 C185.43249229 39.40406532 186.99761163 40.60917097 188.55786133 41.82055664 C193.39477234 45.56796713 198.31484762 49.19583911 203.25 52.8125 C209.40896004 57.32735681 215.51482957 61.89967894 221.5625 66.5625 C228.06232994 71.56925911 234.66648582 76.40986502 241.33349609 81.19116211 C247.00039437 85.26044469 252.59580938 89.41593787 258.16552734 93.61694336 C262.64454783 96.99267161 267.155568 100.32072153 271.6875 103.625 C276.42603712 107.08228319 281.11245329 110.59589163 285.75 114.1875 C289.86947384 117.37003541 294.00275267 120.52861348 298.1875 123.625 C299.06792969 124.27726562 299.94835937 124.92953125 300.85546875 125.6015625 C302.85251307 127.18207375 302.85251307 127.18207375 305 127 C305.52207031 127.69222656 306.04414062 128.38445312 306.58203125 129.09765625 C309.80397637 132.96503141 313.59890331 135.54064491 317.6875 138.4375 C324.98515164 143.70565618 332.02112873 149.18528926 338.92773438 154.9543457 C343.28712614 158.59484716 347.69854117 162.14578869 352.1875 165.625 C358.78168991 170.75570031 365.13832875 176.13442385 371.42626953 181.63476562 C372.84112257 182.86217149 374.27677157 184.06550721 375.71484375 185.265625 C389.10077014 196.6848987 401.759557 213.15174238 403.484375 231.19140625 C403.5812135 232.6479096 403.66967515 234.10499267 403.75 235.5625 C403.80542969 236.29146484 403.86085938 237.02042969 403.91796875 237.77148438 C404.19123441 242.37145635 403.59689157 245.62083195 402 250 C401.37465504 252.55924172 401.37465504 252.55924172 402 255 C404.3132291 257.44220438 404.3132291 257.44220438 407.5 259.625 C408.08241455 260.05393555 408.6648291 260.48287109 409.26489258 260.92480469 C414.32006087 264.61318795 419.51508368 268.10540344 424.69873047 271.60961914 C430.00339122 275.22861019 435.07952612 279.09195707 440.125 283.0625 C445.6807932 287.43370313 451.26105131 291.74594017 457 295.875 C457.58152832 296.29789307 458.16305664 296.72078613 458.76220703 297.15649414 C461.59983981 299.34181881 461.59983981 299.34181881 465 300 C465.72832031 300.73734375 466.45664062 301.4746875 467.20703125 302.234375 C470.16842384 305.16677493 473.11628399 307.11622898 476.6875 309.25 C477.26822266 309.600625 477.84894531 309.95125 478.44726562 310.3125 C483.35528346 313.26298471 486.13357364 314.61751856 492 314 C495.48874894 310.2786678 495.75865754 305.90729671 496 301 C495.34 300.34 494.68 299.68 494 299 C495.32 295.7 496.64 292.4 498 289 C509.02999936 294.51499968 515.06361397 310.68372508 519.29980469 321.88964844 C522.21946996 330.68936484 523.87653563 340.75653338 523 350 C522.91878906 350.99515625 522.83757813 351.9903125 522.75390625 353.015625 C519.84335993 379.3005588 505.18789857 411.50027501 486 430 C483.2734375 431.25390625 483.2734375 431.25390625 481 432 C478.66356463 428.25750622 476.75390913 424.42677809 474.875 420.4375 C470.02236943 410.50122371 463.5604782 402.03248863 455.43359375 394.5234375 C454 393 454 393 454 391 C453.42507813 390.74734375 452.85015625 390.4946875 452.2578125 390.234375 C449.72902419 388.85185406 447.96064306 387.23559376 445.875 385.25 C442.04838397 381.76897327 438.17680809 379.10757642 433.65234375 376.6171875 C431.41449264 375.25272452 429.4674838 373.82885536 427.41015625 372.21875 C422.42375673 368.42952955 417.02212092 365.55345057 411.5 362.625 C410.43700684 362.05628174 409.37401367 361.48756348 408.27880859 360.90161133 C396.75466417 354.76081137 385.16761123 348.90236411 373.25 343.5625 C372.4863916 343.21985107 371.7227832 342.87720215 370.93603516 342.52416992 C370.2197998 342.20810791 369.50356445 341.8920459 368.765625 341.56640625 C368.13430664 341.28740479 367.50298828 341.00840332 366.85253906 340.72094727 C365.01492677 339.9565246 365.01492677 339.9565246 363.07324219 339.54467773 C360.56203136 338.88493782 358.402769 337.84313488 356.0625 336.71875 C349.84701394 333.85006412 343.49986893 331.63110457 337 329.5 C335.8253418 329.11199219 334.65068359 328.72398437 333.44042969 328.32421875 C321.52478481 324.43790534 309.47127308 320.56707096 297 319 C297 319.99 297 320.98 297 322 C297.66 322.33 298.32 322.66 299 323 C299.969375 323.515625 300.93875 324.03125 301.9375 324.5625 C304.88876978 326.21245357 304.88876978 326.21245357 308 326 C308 326.66 308 327.32 308 328 C308.53657227 328.16508057 309.07314453 328.33016113 309.62597656 328.50024414 C315.56075052 330.39340888 321.13763153 332.74324181 326.75 335.4375 C327.65105469 335.86925537 328.55210937 336.30101074 329.48046875 336.74584961 C349.6987512 346.59034445 368.07703787 358.19804913 385 373 C385.73992187 373.639375 386.47984375 374.27875 387.2421875 374.9375 C390.78931174 378.01452344 394.273754 381.15578216 397.75 384.3125 C401.61439927 387.7928596 405.52723066 391.20695869 409.5 394.5625 C410.5003125 395.40941406 411.500625 396.25632812 412.53125 397.12890625 C414.74937185 399.20134254 414.74937185 399.20134254 417 399 C417.88945313 399.92232422 417.88945313 399.92232422 418.796875 400.86328125 C424.09157626 405.99839046 432.79222563 407.76367953 440 408 C442.7254702 407.48643192 445.32250348 406.74618755 448 406 C451 405.875 451 405.875 453 406 C444.37578885 433.87541235 416.90948303 456.71905626 392 470 C381.02707259 475.43899121 368.39039268 479.59275499 356 478 C353.69140625 476.98046875 353.69140625 476.98046875 352 476 C353.0828125 475.1646875 353.0828125 475.1646875 354.1875 474.3125 C357.07086423 472.0270024 357.07086423 472.0270024 359.6875 469.25 C362 467 362 467 364 467 C364.68774405 465.67741528 365.34711373 464.34013497 366 463 C366.804375 461.3603125 366.804375 461.3603125 367.625 459.6875 C369.06954352 455.81349694 369.15732308 453.09040003 369 449 C369.33 448.01 369.66 447.02 370 446 C368.45862915 430.67696038 357.1939272 418.9262774 345.88818359 409.48681641 C342.19718284 406.58040387 338.33453816 403.93309666 334.4375 401.3125 C333.65133301 400.78285645 332.86516602 400.25321289 332.05517578 399.70751953 C327.88461104 396.78480336 327.88461104 396.78480336 323 396 C322.57460938 395.57203125 322.14921875 395.1440625 321.7109375 394.703125 C310.01908662 383.06466157 280.61850424 375.91153099 264.625 375.8125 C262.830625 375.9053125 262.830625 375.9053125 261 376 C261 375.67 261 375.34 261 375 C259.82300789 375.00999275 259.82300789 375.00999275 258.62223816 375.02018738 C251.137658 375.08091783 243.65320141 375.12628326 236.168437 375.15543652 C232.32271288 375.17092949 228.47719644 375.19185787 224.6315918 375.22631836 C189.54218143 375.53255453 189.54218143 375.53255453 173.71166992 371.40307617 C171.8063939 370.88539134 171.8063939 370.88539134 169 371 C167.66073801 370.00795408 166.32901064 369.00573778 165 368 C162.37065239 366.58862057 159.68945742 365.29233668 157 364 C154.73364245 362.86682123 153.29005824 361.3671644 151.54296875 359.55859375 C150.45184394 358.45641958 149.32525784 357.38883098 148.17578125 356.34765625 C141.63909491 350.27328957 136.05490027 342.60076202 132.9609375 334.16796875 C132.64382813 333.45253906 132.32671875 332.73710937 132 332 C131.01 331.67 130.02 331.34 129 331 C129.185625 329.97648437 129.37125 328.95296875 129.5625 327.8984375 C129.99069897 324.08287878 129.72468544 321.36618858 129 317.625 C127.2191868 306.42619482 128.57576813 295.19039329 130 284 C123.39041535 284 117.54914361 291.28166788 113 295.625 C90.90483495 318.3358198 81.02031375 351.0100254 80.92089844 382.16015625 C81.94426415 418.90024877 97.53219107 452.33172722 121 480 C122.05574219 481.35738281 122.05574219 481.35738281 123.1328125 482.7421875 C124.80074733 485.06881394 124.80074733 485.06881394 127 486 C127 486.66 127 487.32 127 488 C127.59272705 488.26329102 128.1854541 488.52658203 128.79614258 488.79785156 C131.09418916 490.05137781 132.48208301 491.33014054 134.26171875 493.234375 C137.86604987 496.93927874 141.70137945 500.1249649 145.8125 503.25 C146.53300537 503.80067139 147.25351074 504.35134277 147.99584961 504.91870117 C155.95597346 510.88900811 164.41452839 515.98929786 173 521 C173.66 520.34 174.32 519.68 175 519 C175.33 519.66 175.66 520.32 176 521 C176.41110798 517.17747653 176.41110798 517.17747653 174.71484375 515.359375 C174.12832031 514.82828125 173.54179687 514.2971875 172.9375 513.75 C169.0141468 510.03850788 165.49750755 506.112221 162 502 C161.24847656 501.12601563 160.49695313 500.25203125 159.72265625 499.3515625 C145.01944281 482.02360479 133.01667394 463.41860457 123 443 C122.34 443 121.68 443 121 443 C120 439.125 120 439.125 120 438 C118.53976339 431.06387609 116.78941217 424.21255209 115 417.35546875 C112.62040632 407.36729796 111.65060313 397.72988178 111.68432617 387.4543457 C111.68750265 385.43581832 111.6638615 383.41874015 111.63867188 381.40039062 C111.63326513 370.41929406 113.26291372 359.59696417 119 350 C119.99 349.34 120.98 348.68 122 348 C123.71202689 351.86656921 124.5359767 355.52694116 125.25 359.6875 C129.65391621 382.86328835 139.94712358 404.18203814 154 423 C154.80913894 424.11549016 155.61775042 425.23136315 156.42578125 426.34765625 C164.08918466 436.76580611 172.80332537 446.99902039 183 455 C184.67994624 456.65328043 186.34610417 458.32065962 188 460 C194.47396661 466.1215157 201.07920672 471.96637424 208.01953125 477.5546875 C211.57290421 480.47003675 215.03726122 483.478092 218.5 486.5 C223.80279638 491.12430609 229.16940486 495.64026626 234.6328125 500.07421875 C239.67674926 504.17761945 244.41358344 508.387034 249 513 C250.03650669 514.01560403 251.07431509 515.0298809 252.11328125 516.04296875 C253.17973223 517.09110033 254.24613804 518.13927786 255.3125 519.1875 C255.86228516 519.72052734 256.41207031 520.25355469 256.97851562 520.80273438 C258.35715678 522.16424956 259.68339727 523.57840502 261 525 C261 525.66 261 526.32 261 527 C261.66 527 262.32 527 263 527 C264.39599396 528.52837269 265.71587649 530.12650099 267 531.75 C267.80179688 532.75546875 268.60359375 533.7609375 269.4296875 534.796875 C269.85088867 535.32603516 270.27208984 535.85519531 270.70605469 536.40039062 C272.79193353 538.97900915 274.96830122 541.48055371 277.125 544 C281.0729154 548.71044112 284.45348498 553.55986691 287.625 558.8203125 C288.94779247 561.09498393 288.94779247 561.09498393 291 563 C311.66920323 600.75388247 316.46418977 640.48674958 304.578125 682.12890625 C301.82622262 691.16887293 298.52710731 701.27637488 293 709 C290.41015625 709.93359375 290.41015625 709.93359375 288 710 C287.34 709.67 286.68 709.34 286 709 C286 708.34 286 707.68 286 707 C285.42507813 706.74992188 284.85015625 706.49984375 284.2578125 706.2421875 C281.68857472 704.82866222 279.97105186 703.17597548 277.875 701.125 C270.5868027 694.45571257 262.29146162 689.324452 254 684 C252.47392805 683.00785908 250.94788602 682.01567213 249.421875 681.0234375 C240.60068937 675.3317149 231.6173652 669.953917 222.5 664.75 C221.00303589 663.88967163 221.00303589 663.88967163 219.47583008 663.01196289 C218.54536865 662.48723389 217.61490723 661.96250488 216.65625 661.421875 C215.82931641 660.95362305 215.00238281 660.48537109 214.15039062 660.00292969 C211.94232316 658.78865866 211.94232316 658.78865866 209 659 C207.99386043 658.0061775 206.99509651 657.00487956 206 656 C204.15845202 654.97880178 202.27898151 654.02485417 200.37890625 653.1171875 C198.72858398 652.32634766 198.72858398 652.32634766 197.04492188 651.51953125 C195.89572266 650.97683594 194.74652344 650.43414063 193.5625 649.875 C191.84450195 649.04935547 191.84450195 649.04935547 190.09179688 648.20703125 C183.72149255 645.11743673 183.72149255 645.11743673 177 643 C174.88023753 641.94750985 172.77907805 640.85744288 170.6875 639.75 C162.56740084 635.56558325 154.18149638 632.05756383 145.75 628.5625 C121.7385003 618.59327933 98.22840114 607.68506688 75 596 C74.28183105 595.6606543 73.56366211 595.32130859 72.82373047 594.97167969 C71 594 71 594 69.3125 592.1875 C66.54377898 589.56843957 63.60332899 588.08148177 60.25390625 586.3046875 C58.14215794 585.082289 56.39902812 583.78487335 54.5625 582.1875 C52.30801316 579.78357921 52.30801316 579.78357921 50 580 C50 579.01 50 578.02 50 577 C49.44828125 576.7525 48.8965625 576.505 48.328125 576.25 C45.54863293 574.75765526 43.2185293 572.96327477 40.75 571 C39.85796875 570.29875 38.9659375 569.5975 38.046875 568.875 C37.03367187 567.946875 37.03367187 567.946875 36 567 C36 566.34 36 565.68 36 565 C35.44441406 564.76796875 34.88882813 564.5359375 34.31640625 564.296875 C18.14448779 555.24278237 2.48465471 530.50563329 -5 514 C-5 513.34 -5 512.68 -5 512 C-5.99 511.67 -6.98 511.34 -8 511 C-8 510.01 -8 509.02 -8 508 C-8.58369461 506.15689549 -9.22520235 504.33184691 -9.8984375 502.51953125 C-10.29546875 501.43736328 -10.6925 500.35519531 -11.1015625 499.24023438 C-11.52179688 498.10908203 -11.94203125 496.97792969 -12.375 495.8125 C-19 477.95605469 -19 477.95605469 -19 471 C-19.66 470.67 -20.32 470.34 -21 470 C-21.41064453 467.70605469 -21.41064453 467.70605469 -21.6328125 464.671875 C-21.71660156 463.56070312 -21.80039062 462.44953125 -21.88671875 461.3046875 C-21.96535156 460.13164063 -22.04398437 458.95859375 -22.125 457.75 C-22.21136719 456.62335938 -22.29773438 455.49671875 -22.38671875 454.3359375 C-23.2832868 441.89783477 -23.07768534 429.67756692 -22.125 417.25 C-22.04636719 416.07695313 -21.96773438 414.90390625 -21.88671875 413.6953125 C-21.80292969 412.58414062 -21.71914063 411.47296875 -21.6328125 410.328125 C-21.55949707 409.3268457 -21.48618164 408.32556641 -21.41064453 407.29394531 C-21.27513184 406.53694336 -21.13961914 405.77994141 -21 405 C-20.34 404.67 -19.68 404.34 -19 404 C-18.67 398.39 -18.34 392.78 -18 387 C-17.34 387.33 -16.68 387.66 -16 388 C-15.72849121 387.16976318 -15.45698242 386.33952637 -15.17724609 385.48413086 C-13.91483418 381.63358754 -12.64647741 377.78505735 -11.375 373.9375 C-11.14823578 373.250047 -10.92147156 372.56259399 -10.68783569 371.85430908 C-7.74640179 362.95671649 -4.67508631 354.18604307 -0.86328125 345.6171875 C0.04657565 342.8587978 0.05174059 341.6644095 -1 339 C-8.82754322 342.82679891 -14.88526604 348.88526604 -21 355 C-22.05073453 355.88621853 -23.10594986 356.76713511 -24.1640625 357.64453125 C-28.18203597 361.07529442 -31.78450455 364.81741297 -35.375 368.6875 C-36.03419434 369.39447021 -36.69338867 370.10144043 -37.37255859 370.82983398 C-41.65480861 375.45674777 -45.7370116 380.19439218 -49.66796875 385.125 C-52.68060698 388.83907326 -55.8026416 392.45145515 -58.9375 396.0625 C-59.5061377 396.71871338 -60.07477539 397.37492676 -60.66064453 398.05102539 C-62.72752838 400.42784818 -64.77196512 402.77196512 -67 405 C-69.625 405.125 -69.625 405.125 -72 405 C-76.62031583 384.61441731 -59.67565057 356.86938078 -49.94189453 339.6796875 C-48.61568926 337.31465581 -47.3802757 334.90326288 -46.125 332.5 C-28.45450657 300.34068093 -2.96228582 270.58495456 27.58911133 250.17895508 C28.05470459 249.7898999 28.52029785 249.40084473 29 249 C29 248.34 29 247.68 29 247 C29.70898438 246.90589844 30.41796875 246.81179688 31.1484375 246.71484375 C34.51577365 245.87070332 36.7220061 244.46591421 39.625 242.5625 C45.2917216 238.94277312 51.1152949 235.69837126 57.0625 232.5625 C57.88379395 232.12558838 58.70508789 231.68867676 59.55126953 231.23852539 C60.32970215 230.83110107 61.10813477 230.42367676 61.91015625 230.00390625 C62.60246338 229.64111572 63.29477051 229.2783252 64.00805664 228.90454102 C65.99203515 228.00361684 67.87382684 227.45677758 70 227 C70 226.01 70 225.02 70 224 C69.3387915 224.00523682 68.67758301 224.01047363 67.99633789 224.01586914 C65.01840149 224.03657656 62.04048018 224.04964012 59.0625 224.0625 C58.02158203 224.07087891 56.98066406 224.07925781 55.90820312 224.08789062 C54.91884766 224.09111328 53.92949219 224.09433594 52.91015625 224.09765625 C51.99371338 224.10289307 51.07727051 224.10812988 50.13305664 224.11352539 C48 224 48 224 47 223 C46.34 223.33 45.68 223.66 45 224 C45 223.34 45 222.68 45 222 C43.85273438 222.33 42.70546875 222.66 41.5234375 223 C37.13099422 224.09569951 33.12412948 224.15287084 28.625 224 C20.56328658 223.8508816 12.78177623 224.53852834 4.79296875 225.5625 C1.80320426 225.9073544 -0.99985666 226.09430706 -4 226 C-4.33 226.66 -4.66 227.32 -5 228 C-6.8038998 228.24283267 -8.61022842 228.47248621 -10.421875 228.6484375 C-13.51533746 229.07027329 -16.47072216 229.80870296 -19.5 230.5625 C-24.51945797 231.76623497 -28.85846403 232.30244329 -34 232 C-34.33 231.01 -34.66 230.02 -35 229 C-10.75184435 190.30799712 57.86010142 166.70936194 99.3125 157.1875 C109.13649825 155.0212507 119.04295234 153.41422271 129 152 C127.40555379 150.33348843 126.23079466 149.10770418 124.125 148.125 C121.20966693 146.58158838 119.33544442 144.33544442 117 142 C115.68066486 140.94065963 114.34558413 139.90079265 113 138.875 C106.81209513 134.13946288 100.92028294 129.0618172 95 124 C93.79039658 122.96871247 92.58076084 121.93746285 91.37109375 120.90625 C90.16380686 119.87529928 88.95677336 118.84405177 87.75 117.8125 C87.16484619 117.31242432 86.57969238 116.81234863 85.97680664 116.29711914 C81.803185 112.71829611 77.70858678 109.06132461 73.671875 105.328125 C72.09486478 103.79266196 72.09486478 103.79266196 70 104 C70 103.01 70 102.02 70 101 C69.071875 100.773125 68.14375 100.54625 67.1875 100.3125 C63.31119583 98.71637475 62.99374964 97.58874935 61 94 C59.94700922 92.86686031 58.85967578 91.76518956 57.75 90.6875 C53.93196264 86.97265284 50.46849025 83.04000285 47 79 C46.10476888 77.97993992 45.20888566 76.96045192 44.3125 75.94140625 C29.22762264 58.69975923 15.62000369 40.13980944 4.875 19.875 C4.41343506 19.01044189 3.95187012 18.14588379 3.47631836 17.25512695 C0.88821448 12.23924421 -1.09063828 7.59319744 -2 2 C-1.34 1.34 -0.68 0.68 0 0 Z M235 204 C236.73533558 207.09284547 236.73533558 207.09284547 239.4375 208.375 C242.43300105 210.27458603 243.19149429 211.98582382 245 215 C246.38736782 216.50668145 247.80789054 217.9831277 249.25 219.4375 C255.10884486 225.72525005 259.7275499 232.7337186 264.38183594 239.94311523 C274.67144067 255.5926989 287.57403841 264.79651077 305.94482422 268.59863281 C319.84641719 271.31355546 333.43272979 273.18566389 347.625 273.0625 C348.62917969 273.05798828 349.63335938 273.05347656 350.66796875 273.04882812 C353.11204471 273.03718967 355.5559882 273.0208424 358 273 C358.66 271.02 359.32 269.04 360 267 C347.4175622 256.33392547 333.85930127 246.25686806 319 239 C316.99384866 237.67594012 314.99330842 236.34331654 313 235 C311.67596364 234.31505479 310.3408808 233.65135313 309 233 C297 227 297 227 295.08984375 226.03125 C291.93572443 224.47482476 288.74887834 222.9888454 285.5625 221.5 C284.90701172 221.19191406 284.25152344 220.88382813 283.57617188 220.56640625 C277.49804913 217.04835469 277.49804913 217.04835469 271.0625 216.6875 C270.381875 216.790625 269.70125 216.89375 269 217 C267.57239802 215.80479834 266.1502628 214.60138577 264.77734375 213.34375 C260.57834404 210.16912165 255.03270504 209.24551855 250 208 C246.67030767 207.09190209 243.44580617 206.18237525 240.25 204.875 C237.93635616 203.81877687 237.93635616 203.81877687 235 204 Z M361 270 C362 272 362 272 362 272 Z M131 280 C131 280.99 131 281.98 131 283 C131.66 282.01 132.32 281.02 133 280 C132.34 280 131.68 280 131 280 Z M279 316 C282.23319447 318.15546298 284.16896958 318.68074747 288 319 C288.99 318.34 289.98 317.68 291 317 C287.04 316.67 283.08 316.34 279 316 Z M292 317 C291.67 317.66 291.34 318.32 291 319 C291.99 318.67 292.98 318.34 294 318 C293.34 317.67 292.68 317.34 292 317 Z M291 320 C291.33 320.66 291.66 321.32 292 322 C292.66 321.67 293.32 321.34 294 321 C293.01 320.67 292.02 320.34 291 320 Z M2 336 C3 338 3 338 3 338 Z M459 337 C460.43992551 341.10228779 462.44493408 344.30398117 465 347.8125 C465.70125 348.78832031 466.4025 349.76414062 467.125 350.76953125 C467.74375 351.50558594 468.3625 352.24164063 469 353 C469.66 353 470.32 353 471 353 C471.226875 353.70125 471.45375 354.4025 471.6875 355.125 C473.33841288 358.74128535 475.2908835 361.08769976 478 364 C478.66 364 479.32 364 480 364 C480.39419793 358.55787851 480.74453905 353.47899082 477.59765625 348.73046875 C472.46041408 343.16616977 466.25152141 339.10700548 459 337 Z M180 521 C181 523 181 523 181 523 Z M178 523 C178.33 523.66 178.66 524.32 179 525 C179.33 524.34 179.66 523.68 180 523 C179.34 523 178.68 523 178 523 Z M182 523 C182 524.32 182 525.64 182 527 C182.66 527 183.32 527 184 527 C183.67 525.68 183.34 524.36 183 523 C182.67 523 182.34 523 182 523 Z M185 526 C184.67 526.66 184.34 527.32 184 528 C184.99 527.67 185.98 527.34 187 527 C186.34 526.67 185.68 526.34 185 526 Z " fill="#FDFDFD" transform="translate(290,148)"/>
<path d="M0 0 C3.92046016 1.72847874 7.23023242 4.23990269 10.625 6.8125 C11.50285156 7.45155273 11.50285156 7.45155273 12.3984375 8.10351562 C15.95664865 10.80073761 17.54094815 12.83556847 19 17 C-34.19139966 18.20573356 -34.19139966 18.20573356 -45 11 C-39.90546436 11.46738859 -34.83107686 11.99782427 -29.765625 12.71875 C-16.50638034 14.60575742 -3.38704597 15.64245901 10 16 C10.33 14.02 10.66 12.04 11 10 C9.93458984 9.16855469 9.93458984 9.16855469 8.84765625 8.3203125 C7.92855469 7.59585937 7.00945313 6.87140625 6.0625 6.125 C5.14597656 5.40570313 4.22945312 4.68640625 3.28515625 3.9453125 C1 2 1 2 0 0 Z M13 13 C14 15 14 15 14 15 Z " fill="#EAEAE9" transform="translate(638,405)"/>
<path d="M0 0 C4.98204139 4.13403434 9.56659962 8.50475038 14.08203125 13.14453125 C15.87004138 15.06021793 15.87004138 15.06021793 18 16 C18 16.66 18 17.32 18 18 C18.598125 18.268125 19.19625 18.53625 19.8125 18.8125 C21.99847854 19.99917406 23.41332594 21.09599113 25 23 C25 23.66 25 24.32 25 25 C25.66 25.33 26.32 25.66 27 26 C22.15758753 25.36508486 18.24167578 23.3612863 13.9375 21.1875 C13.23044922 20.84396484 12.52339844 20.50042969 11.79492188 20.14648438 C7.90730851 18.20085252 4.89063396 16.34112237 2 13 C2.66 13 3.32 13 4 13 C4.66 12.34 5.32 11.68 6 11 C6.33 11.66 6.66 12.32 7 13 C7.42486766 9.11329155 7.42486766 9.11329155 5.46875 7.1484375 C4.8190625 6.56320312 4.169375 5.97796875 3.5 5.375 C2.30054834 4.2850221 1.12574382 3.16594896 0 2 C0 1.34 0 0.68 0 0 Z M11 13 C12 15 12 15 12 15 Z M9 15 C9.33 15.66 9.66 16.32 10 17 C10.33 16.34 10.66 15.68 11 15 C10.34 15 9.68 15 9 15 Z M13 15 C13 16.32 13 17.64 13 19 C13.66 19 14.32 19 15 19 C14.67 17.68 14.34 16.36 14 15 C13.67 15 13.34 15 13 15 Z M16 18 C15.67 18.66 15.34 19.32 15 20 C15.99 19.67 16.98 19.34 18 19 C17.34 18.67 16.68 18.34 16 18 Z " fill="#EEEEEE" transform="translate(459,656)"/>
<path d="M0 0 C4.17220503 1.73497635 7.34593474 4.60467416 10.75 7.5 C11.35199219 7.99886719 11.95398438 8.49773437 12.57421875 9.01171875 C14.09048277 10.29418243 15.55043376 11.64260271 17 13 C17 13.66 17 14.32 17 15 C17.66 15 18.32 15 19 15 C19 15.66 19 16.32 19 17 C12.99595409 15.17734321 7.25630428 12.91904124 1.5 10.4375 C0.78134766 10.13255615 0.06269531 9.8276123 -0.67773438 9.51342773 C-5.88064485 7.23871029 -5.88064485 7.23871029 -7 5 C-1.93001981 5.65419099 2.41990777 7.8546409 7 10 C7 9.01 7 8.02 7 7 C5.68 7 4.36 7 3 7 C3 6.34 3 5.68 3 5 C2.34 4.34 1.68 3.68 1 3 C0.67 2.01 0.34 1.02 0 0 Z " fill="#F0F0EF" transform="translate(575,310)"/>
<path d="M0 0 C0.66 0.33 1.32 0.66 2 1 C1.28082397 1.7113208 1.28082397 1.7113208 0.54711914 2.43701172 C-1.61701838 4.58040335 -3.77729647 6.7276439 -5.9375 8.875 C-6.69224609 9.62136719 -7.44699219 10.36773437 -8.22460938 11.13671875 C-8.94326172 11.85214844 -9.66191406 12.56757813 -10.40234375 13.3046875 C-11.06741943 13.96452637 -11.73249512 14.62436523 -12.41772461 15.30419922 C-14.0813711 16.92673932 -14.0813711 16.92673932 -15 19 C-13.75863281 18.71125 -12.51726562 18.4225 -11.23828125 18.125 C-9.59641879 17.74971715 -7.95448808 17.37473282 -6.3125 17 C-5.49587891 16.80921875 -4.67925781 16.6184375 -3.83789062 16.421875 C0.17239326 15.51266084 3.85717252 14.72999902 8 15 C1.20229547 19.53180302 -7.96285696 20.47277312 -16 20 C-16.33 19.01 -16.66 18.02 -17 17 C-12.8194439 10.32922095 -5.87793287 5.10918913 0 0 Z " fill="#DFDFDF" transform="translate(272,360)"/>
<path d="M0 0 C10.27809305 2.38932293 20.13412908 5.23863671 30 9 C25.88825414 10.37058195 23.26339405 9.75640862 19 9 C18.67 8.34 18.34 7.68 18 7 C16.34550895 6.61070799 14.67453799 6.291224 13 6 C10.66237777 5.34853151 8.32809543 4.68473395 6 4 C7.65 4.99 9.3 5.98 11 7 C10.67 7.66 10.34 8.32 10 9 C9.34 9 8.68 9 8 9 C8 8.34 8 7.68 8 7 C7.360625 6.731875 6.72125 6.46375 6.0625 6.1875 C4 5 4 5 3 2 C2.01 1.67 1.02 1.34 0 1 C0 0.67 0 0.34 0 0 Z " fill="#EFEFEE" transform="translate(520,349)"/>
<path d="M0 0 C3.95992781 1.74472067 7.31454097 4.28519242 10.75 6.875 C11.35199219 7.30941406 11.95398438 7.74382812 12.57421875 8.19140625 C14.296875 9.4921875 14.296875 9.4921875 17 12 C17 13.32 17 14.64 17 16 C14.69 16 12.38 16 10 16 C10.33 14.02 10.66 12.04 11 10 C9.93458984 9.16855469 9.93458984 9.16855469 8.84765625 8.3203125 C7.92855469 7.59585937 7.00945313 6.87140625 6.0625 6.125 C5.14597656 5.40570313 4.22945312 4.68640625 3.28515625 3.9453125 C1 2 1 2 0 0 Z M13 13 C14 15 14 15 14 15 Z " fill="#F1F1F0" transform="translate(638,405)"/>
<path d="M0 0 C2 1 2 1 2.61010742 2.79418945 C3.14507498 5.29870241 3.67816848 7.80261724 4.1875 10.3125 C4.47270508 11.61477539 4.47270508 11.61477539 4.76367188 12.94335938 C5.02567383 14.2030957 5.02567383 14.2030957 5.29296875 15.48828125 C5.4530542 16.25696533 5.61313965 17.02564941 5.77807617 17.81762695 C6.01491961 20.14671769 5.70251314 21.78215121 5 24 C4.32595716 21.43923903 3.660586 18.87673417 3 16.3125 C2.71382813 15.2306543 2.71382813 15.2306543 2.421875 14.12695312 C1.45134572 10.33149039 0.75044761 6.95384561 1 3 C0.34 3 -0.32 3 -1 3 C-1.33 3.99 -1.66 4.98 -2 6 C-2.33 5.34 -2.66 4.68 -3 4 C-2.01 2.68 -1.02 1.36 0 0 Z " fill="#EDEDED" transform="translate(411,496)"/>
<path d="M0 0 C4.42711752 6.64067627 4.57328118 17.11738381 4 25 C3 28 3 28 2 30 C1.67 30 1.34 30 1 30 C1.00523682 29.410979 1.01047363 28.82195801 1.01586914 28.21508789 C1.03689803 25.49756983 1.04974146 22.78006899 1.0625 20.0625 C1.07087891 19.13630859 1.07925781 18.21011719 1.08789062 17.25585938 C1.10837786 11.41699697 0.75429787 5.79086947 0 0 Z " fill="#E1E1E0" transform="translate(690,368)"/>
<path d="M0 0 C2.52993801 2.52993801 2.39753671 3.7996661 2.6875 7.3125 C2.77386719 8.25738281 2.86023438 9.20226562 2.94921875 10.17578125 C2.99919116 12.95501579 2.65249614 15.30661369 2 18 C0.35 16.35 -1.3 14.7 -3 13 C-2.67 12.34 -2.34 11.68 -2 11 C-0.515 11.99 -0.515 11.99 1 13 C0.67 8.71 0.34 4.42 0 0 Z " fill="#EAEAEA" transform="translate(769,499)"/>
<path d="M0 0 C1 2 1 2 0.22265625 4.6015625 C-0.16019531 5.59929687 -0.54304688 6.59703125 -0.9375 7.625 C-1.31777344 8.62789063 -1.69804687 9.63078125 -2.08984375 10.6640625 C-2.39019531 11.43492187 -2.69054687 12.20578125 -3 13 C-4 10 -4 10 -4.375 7.875 C-4.684375 6.946875 -4.684375 6.946875 -5 6 C-5.99 5.67 -6.98 5.34 -8 5 C-4.04 2.525 -4.04 2.525 0 0 Z M-2 3 C-1 5 -1 5 -1 5 Z " fill="#EEEEED" transform="translate(294,481)"/>
<path d="M0 0 C1.9375 0.8125 1.9375 0.8125 4 2 C4.33 2.99 4.66 3.98 5 5 C5.66 5 6.32 5 7 5 C7 5.66 7 6.32 7 7 C4.03 6.01 1.06 5.02 -2 4 C-1.01 3.34 -0.02 2.68 1 2 C0.67 1.34 0.34 0.68 0 0 Z " fill="#E9E9E9" transform="translate(587,320)"/>
<path d="M0 0 C4.30764815 1.56641751 8.06171464 3.68336156 12 6 C9.31596792 7.34201604 8.2569869 6.70405525 5.4375 5.8125 C4.22900391 5.45091797 4.22900391 5.45091797 2.99609375 5.08203125 C1 4 1 4 0.22265625 1.88671875 C0.14917969 1.26410156 0.07570313 0.64148438 0 0 Z " fill="#E4E3E3" transform="translate(360,739)"/>
<path d="M0 0 C-1.49097658 3.7952131 -3.75700849 5.61042731 -7 8 C-7 5 -7 5 -4.625 2.3125 C-2 0 -2 0 0 0 Z " fill="#E4E4E4" transform="translate(654,615)"/>
<path d="M0 0 C1.22589844 0.15275391 1.22589844 0.15275391 2.4765625 0.30859375 C3.41628906 0.43427734 3.41628906 0.43427734 4.375 0.5625 C4.375 0.8925 4.375 1.2225 4.375 1.5625 C1.075 1.8925 -2.225 2.2225 -5.625 2.5625 C-5.955 1.9025 -6.285 1.2425 -6.625 0.5625 C-4.10446405 -0.69776798 -2.7707902 -0.35624445 0 0 Z " fill="#E9E9E9" transform="translate(572.625,462.4375)"/>
<path d="M0 0 C4.875 1.75 4.875 1.75 6 4 C4.02 3.34 2.04 2.68 0 2 C0 1.34 0 0.68 0 0 Z " fill="#FCFBFB" transform="translate(721,524)"/>
<path d="M0 0 C0.99 0.33 1.98 0.66 3 1 C3 1.66 3 2.32 3 3 C1.35 3 -0.3 3 -2 3 C-1.34 2.01 -0.68 1.02 0 0 Z " fill="#FCFCFC" transform="translate(763,495)"/>
<path d="M0 0 C1.98 0.66 3.96 1.32 6 2 C2.25 3.125 2.25 3.125 0 2 C0 1.34 0 0.68 0 0 Z " fill="#F2F2F2" transform="translate(456,786)"/>
<path d="M0 0 C1.32 1.32 2.64 2.64 4 4 C2.68 4 1.36 4 0 4 C0 2.68 0 1.36 0 0 Z " fill="#FAF9F8" transform="translate(692,399)"/>
<path d="M0 0 C2.31 0 4.62 0 7 0 C7 0.33 7 0.66 7 1 C4.69 1 2.38 1 0 1 C0 0.67 0 0.34 0 0 Z " fill="#FBFCFC" transform="translate(542,523)"/>
<path d="M0 0 C1.98 0.99 1.98 0.99 4 2 C3.01 2 2.02 2 1 2 C0.67 1.34 0.34 0.68 0 0 Z " fill="#F1F1F1" transform="translate(441,780)"/>
<path d="M0 0 C0.99 0.33 1.98 0.66 3 1 C2.01 1.66 1.02 2.32 0 3 C0 2.01 0 1.02 0 0 Z " fill="#FCFBFC" transform="translate(658,490)"/>
<path d="M0 0 C0.66 0.66 1.32 1.32 2 2 C0.35 2 -1.3 2 -3 2 C-2.01 1.34 -1.02 0.68 0 0 Z " fill="#FEFEFD" transform="translate(413,299)"/>
<path d="M0 0 C1.98 0.99 1.98 0.99 4 2 C2.68 1.67 1.36 1.34 0 1 C0 0.67 0 0.34 0 0 Z " fill="#F1F2F2" transform="translate(482,798)"/>
<path d="M0 0 C0.66 0.66 1.32 1.32 2 2 C1.01 2.33 0.02 2.66 -1 3 C-0.67 2.01 -0.34 1.02 0 0 Z " fill="#FBFBFB" transform="translate(731,530)"/>
<path d="M0 0 C1.98 0.99 1.98 0.99 4 2 C2.68 2 1.36 2 0 2 C0 1.34 0 0.68 0 0 Z " fill="#FDFDFD" transform="translate(618,475)"/>
<path d="M0 0 C0.33 0.99 0.66 1.98 1 3 C0.34 3 -0.32 3 -1 3 C-0.67 2.01 -0.34 1.02 0 0 Z " fill="#FCFCFD" transform="translate(419,473)"/>
<path d="M0 0 C1.32 0 2.64 0 4 0 C3.67 0.66 3.34 1.32 3 2 C2.01 1.34 1.02 0.68 0 0 Z " fill="#FDFDFC" transform="translate(573,315)"/>
<path d="M0 0 C0.66 0.33 1.32 0.66 2 1 C0.68 1.33 -0.64 1.66 -2 2 C-1.34 1.34 -0.68 0.68 0 0 Z " fill="#FCFBFB" transform="translate(385,304)"/>
<path d="M0 0 C1.98 0.99 1.98 0.99 4 2 C2.68 2 1.36 2 0 2 C0 1.34 0 0.68 0 0 Z " fill="#FBFAFC" transform="translate(386,277)"/>
<path d="M0 0 C0.99 1.485 0.99 1.485 2 3 C1.01 3.495 1.01 3.495 0 4 C0 2.68 0 1.36 0 0 Z " fill="#F6F7F8" transform="translate(480,227)"/>
<path d="M0 0 C0.99 1.485 0.99 1.485 2 3 C1.34 3 0.68 3 0 3 C0 2.01 0 1.02 0 0 Z " fill="#FCFCFC" transform="translate(426,617)"/>
<path d="M0 0 C0.99 0.495 0.99 0.495 2 1 C1.67 1.66 1.34 2.32 1 3 C0.67 2.01 0.34 1.02 0 0 Z " fill="#FCFCFD" transform="translate(418,604)"/>
<path d="M0 0 C0.99 1.485 0.99 1.485 2 3 C1.34 3 0.68 3 0 3 C0 2.01 0 1.02 0 0 Z " fill="#FDFDFD" transform="translate(389,594)"/>
<path d="M0 0 C0.99 0 1.98 0 3 0 C2.67 0.66 2.34 1.32 2 2 C1.34 1.34 0.68 0.68 0 0 Z " fill="#FAFBFB" transform="translate(485,524)"/>
<path d="M0 0 C1 4 1 4 1 4 Z " fill="#E9EAE9" transform="translate(812,508)"/>
<path d="M0 0 C1 4 1 4 1 4 Z " fill="#E7E7E6" transform="translate(813,502)"/>
<path d="M0 0 C1 4 1 4 1 4 Z " fill="#E1E1E1" transform="translate(813,481)"/>
<path d="M0 0 C4 1 4 1 4 1 Z " fill="#FCFCFE" transform="translate(588,468)"/>
<path d="M0 0 C0.66 0 1.32 0 2 0 C2 0.66 2 1.32 2 2 C1.34 2 0.68 2 0 2 C0 1.34 0 0.68 0 0 Z " fill="#E9EAE9" transform="translate(268,382)"/>
<path d="M0 0 C4 1 4 1 4 1 Z " fill="#FDFEFE" transform="translate(348,372)"/>
<path d="M0 0 C0.99 0.33 1.98 0.66 3 1 C2.01 1 1.02 1 0 1 C0 0.67 0 0.34 0 0 Z " fill="#FDFDFD" transform="translate(340,372)"/>
<path d="M0 0 C0.99 0.33 1.98 0.66 3 1 C2.01 1 1.02 1 0 1 C0 0.67 0 0.34 0 0 Z " fill="#FDFCFC" transform="translate(575,371)"/>
<path d="M0 0 C0.66 0.66 1.32 1.32 2 2 C1.01 2.495 1.01 2.495 0 3 C0 2.01 0 1.02 0 0 Z " fill="#FCFCFB" transform="translate(534,358)"/>
<path d="M0 0 C0.66 0.66 1.32 1.32 2 2 C1.01 1.67 0.02 1.34 -1 1 C-0.67 0.67 -0.34 0.34 0 0 Z " fill="#FCFDFC" transform="translate(581,317)"/>
<path d="M0 0 C0.66 0.66 1.32 1.32 2 2 C1.01 1.67 0.02 1.34 -1 1 C-0.67 0.67 -0.34 0.34 0 0 Z " fill="#F9F9F9" transform="translate(355,313)"/>
<path d="M0 0 C0.66 0.66 1.32 1.32 2 2 C1.01 2.495 1.01 2.495 0 3 C0 2.01 0 1.02 0 0 Z " fill="#FCFBFC" transform="translate(528,274)"/>
<path d="M0 0 C0.99 0.33 1.98 0.66 3 1 C2.01 1 1.02 1 0 1 C0 0.67 0 0.34 0 0 Z " fill="#F1F1F1" transform="translate(465,210)"/>
<path d="M0 0 C0.66 0 1.32 0 2 0 C1.67 0.66 1.34 1.32 1 2 C0.67 1.34 0.34 0.68 0 0 Z " fill="#F0F0F0" transform="translate(539,830)"/>
<path d="M0 0 C0.99 0.495 0.99 0.495 2 1 C1.01 1.495 1.01 1.495 0 2 C0 1.34 0 0.68 0 0 Z " fill="#F3F2F3" transform="translate(506,811)"/>
<path d="" fill="#F5F5F5" transform="translate(0,0)"/>
<path d="M0 0 C0.66 0 1.32 0 2 0 C1.67 0.66 1.34 1.32 1 2 C0.67 1.34 0.34 0.68 0 0 Z " fill="#EEEEEF" transform="translate(283,662)"/>
<path d="" fill="#F2F2F3" transform="translate(0,0)"/>
<path d="M0 0 C0.66 0 1.32 0 2 0 C1.67 0.66 1.34 1.32 1 2 C0.67 1.34 0.34 0.68 0 0 Z " fill="#FCFDFE" transform="translate(403,566)"/>
<path d="M0 0 C0.66 0.66 1.32 1.32 2 2 C1.34 2 0.68 2 0 2 C0 1.34 0 0.68 0 0 Z " fill="#F9F9F9" transform="translate(634,557)"/>
<path d="M0 0 C0.33 0.66 0.66 1.32 1 2 C0.34 1.67 -0.32 1.34 -1 1 C-0.67 0.67 -0.34 0.34 0 0 Z " fill="#F6F6F7" transform="translate(757,557)"/>
<path d="" fill="#FCFCFC" transform="translate(0,0)"/>
<path d="M0 0 C0.66 0.66 1.32 1.32 2 2 C1.34 2 0.68 2 0 2 C0 1.34 0 0.68 0 0 Z " fill="#F8F8F9" transform="translate(754,553)"/>
<path d="M0 0 C3 1 3 1 3 1 Z " fill="#FAFBFB" transform="translate(724,554)"/>
<path d="" fill="#FCFCFC" transform="translate(0,0)"/>
<path d="M0 0 C0.99 0.495 0.99 0.495 2 1 C1.01 1.495 1.01 1.495 0 2 C0 1.34 0 0.68 0 0 Z " fill="#FAFAFA" transform="translate(618,547)"/>
<path d="M0 0 C0.66 0.66 1.32 1.32 2 2 C1.34 2 0.68 2 0 2 C0 1.34 0 0.68 0 0 Z " fill="#FAFBFB" transform="translate(744,542)"/>
<path d="M0 0 C0.66 0 1.32 0 2 0 C1.67 0.66 1.34 1.32 1 2 C0.67 1.34 0.34 0.68 0 0 Z " fill="#FBFAFB" transform="translate(604,539)"/>
<path d="" fill="#FDFDFD" transform="translate(0,0)"/>
<path d="" fill="#FCFCFC" transform="translate(0,0)"/>
<path d="" fill="#EAEAEA" transform="translate(0,0)"/>
<path d="M0 0 C3 1 3 1 3 1 Z " fill="#FCFBFB" transform="translate(553,524)"/>
<path d="M0 0 C0.66 0.66 1.32 1.32 2 2 C1.34 2 0.68 2 0 2 C0 1.34 0 0.68 0 0 Z " fill="#FDFEFE" transform="translate(524,523)"/>
<path d="M0 0 C3 1 3 1 3 1 Z " fill="#FCFCFC" transform="translate(518,523)"/>
<path d="" fill="#FDFDFD" transform="translate(0,0)"/>
<path d="M0 0 C0.66 0 1.32 0 2 0 C1.67 0.66 1.34 1.32 1 2 C0.67 1.34 0.34 0.68 0 0 Z " fill="#FBFBFC" transform="translate(765,502)"/>
<path d="M0 0 C0.66 0.66 1.32 1.32 2 2 C1.34 2 0.68 2 0 2 C0 1.34 0 0.68 0 0 Z " fill="#FCFBFB" transform="translate(766,498)"/>
<path d="M0 0 C0.99 0.495 0.99 0.495 2 1 C1.01 1.495 1.01 1.495 0 2 C0 1.34 0 0.68 0 0 Z " fill="#FCFBFA" transform="translate(414,499)"/>
<path d="M0 0 C0.99 0.495 0.99 0.495 2 1 C1.01 1.495 1.01 1.495 0 2 C0 1.34 0 0.68 0 0 Z " fill="#FDFCFB" transform="translate(646,497)"/>
<path d="M0 0 C0.66 0.66 1.32 1.32 2 2 C1.34 2 0.68 2 0 2 C0 1.34 0 0.68 0 0 Z " fill="#FEFEFE" transform="translate(424,488)"/>
<path d="M0 0 C0.66 0.66 1.32 1.32 2 2 C1.34 2 0.68 2 0 2 C0 1.34 0 0.68 0 0 Z " fill="#FCFCFC" transform="translate(646,485)"/>
<path d="" fill="#F1F1F2" transform="translate(0,0)"/>
<path d="M0 0 C0.66 0.66 1.32 1.32 2 2 C1.34 2 0.68 2 0 2 C0 1.34 0 0.68 0 0 Z " fill="#FDFEFD" transform="translate(622,478)"/>
<path d="M0 0 C0.66 0 1.32 0 2 0 C1.67 0.66 1.34 1.32 1 2 C0.67 1.34 0.34 0.68 0 0 Z " fill="#FDFDFD" transform="translate(596,469)"/>
<path d="" fill="#F1F0EF" transform="translate(0,0)"/>
<path d="M0 0 C0.66 0 1.32 0 2 0 C1.67 0.66 1.34 1.32 1 2 C0.67 1.34 0.34 0.68 0 0 Z " fill="#FAFBF9" transform="translate(300,374)"/>
<path d="M0 0 C0.99 0.495 0.99 0.495 2 1 C1.01 1.495 1.01 1.495 0 2 C0 1.34 0 0.68 0 0 Z " fill="#FCFCFD" transform="translate(356,373)"/>
<path d="M0 0 C0.66 0.66 1.32 1.32 2 2 C1.34 2 0.68 2 0 2 C0 1.34 0 0.68 0 0 Z " fill="#FCFCFB" transform="translate(532,355)"/>
<path d="M0 0 C0.66 0.66 1.32 1.32 2 2 C1.34 2 0.68 2 0 2 C0 1.34 0 0.68 0 0 Z " fill="#FCFCFC" transform="translate(562,301)"/>
<path d="M0 0 C3 1 3 1 3 1 Z " fill="#FDFEFC" transform="translate(415,299)"/>
<path d="M0 0 C0.66 0.66 1.32 1.32 2 2 C1.34 2 0.68 2 0 2 C0 1.34 0 0.68 0 0 Z " fill="#FDFDFC" transform="translate(410,293)"/>
<path d="M0 0 C0.66 0 1.32 0 2 0 C1.67 0.66 1.34 1.32 1 2 C0.67 1.34 0.34 0.68 0 0 Z " fill="#FCFDFD" transform="translate(508,283)"/>
<path d="M0 0 C0.66 0.66 1.32 1.32 2 2 C1.34 2 0.68 2 0 2 C0 1.34 0 0.68 0 0 Z " fill="#F1F3F3" transform="translate(338,229)"/>
<path d="M0 0 C2 1 2 1 2 1 Z " fill="#ECECEC" transform="translate(561,845)"/>
<path d="M0 0 C2 1 2 1 2 1 Z " fill="#EDEFEE" transform="translate(557,842)"/>
<path d="" fill="#E9EAEA" transform="translate(0,0)"/>
<path d="" fill="#EBEAEA" transform="translate(0,0)"/>
<path d="M0 0 C2 1 2 1 2 1 Z " fill="#F3F2F0" transform="translate(528,823)"/>
<path d="" fill="#E9EAEA" transform="translate(0,0)"/>
<path d="M0 0 C2 1 2 1 2 1 Z " fill="#F1F3F1" transform="translate(493,804)"/>
<path d="M0 0 C2 1 2 1 2 1 Z " fill="#F2F2F2" transform="translate(479,797)"/>
<path d="M0 0 C2 1 2 1 2 1 Z " fill="#F4F5F6" transform="translate(448,783)"/>
<path d="" fill="#F1F1F0" transform="translate(0,0)"/>
<path d="M0 0 C2 1 2 1 2 1 Z " fill="#F1F2F1" transform="translate(411,767)"/>
<path d="" fill="#F1F2F2" transform="translate(0,0)"/>
<path d="" fill="#FDFDFD" transform="translate(0,0)"/>
<path d="" fill="#FDFDFC" transform="translate(0,0)"/>
<path d="" fill="#FAF9F9" transform="translate(0,0)"/>
<path d="" fill="#F8F8F9" transform="translate(0,0)"/>
<path d="M0 0 C2 1 2 1 2 1 Z " fill="#FDFCFD" transform="translate(452,652)"/>
<path d="" fill="#F1F0F1" transform="translate(0,0)"/>
<path d="M0 0 C2 1 2 1 2 1 Z " fill="#FCFCFC" transform="translate(484,612)"/>
<path d="" fill="#F4F4F5" transform="translate(0,0)"/>
<path d="" fill="#FDFCFD" transform="translate(0,0)"/>
<path d="" fill="#E1E1E2" transform="translate(0,0)"/>
<path d="M0 0 C2 1 2 1 2 1 Z " fill="#F1F0EF" transform="translate(763,569)"/>
<path d="" fill="#F4F5F3" transform="translate(0,0)"/>
<path d="M0 0 C2 1 2 1 2 1 Z " fill="#FAFCFC" transform="translate(729,554)"/>
<path d="" fill="#F9FAFA" transform="translate(0,0)"/>
<path d="M0 0 C2 1 2 1 2 1 Z " fill="#F6F6F5" transform="translate(741,552)"/>
<path d="M0 0 C2 1 2 1 2 1 Z " fill="#FAFBFB" transform="translate(620,548)"/>
<path d="" fill="#FEFEFD" transform="translate(0,0)"/>
<path d="" fill="#FBFBFB" transform="translate(0,0)"/>
<path d="M0 0 C2 1 2 1 2 1 Z " fill="#FAFAF9" transform="translate(595,535)"/>
<path d="M0 0 C2 1 2 1 2 1 Z " fill="#FAFCFA" transform="translate(571,527)"/>
<path d="M0 0 C2 1 2 1 2 1 Z " fill="#FCFDFC" transform="translate(543,525)"/>
<path d="" fill="#FBFDFC" transform="translate(0,0)"/>
<path d="M0 0 C2 1 2 1 2 1 Z " fill="#FDFCFC" transform="translate(498,524)"/>
<path d="M0 0 C2 1 2 1 2 1 Z " fill="#FCFCFC" transform="translate(479,523)"/>
<path d="" fill="#E9E9E9" transform="translate(0,0)"/>
<path d="M0 0 C2 1 2 1 2 1 Z " fill="#FBFCFB" transform="translate(698,510)"/>
<path d="M0 0 C2 1 2 1 2 1 Z " fill="#FCFDFD" transform="translate(662,506)"/>
<path d="" fill="#FBFDFC" transform="translate(0,0)"/>
<path d="" fill="#FCFBFB" transform="translate(0,0)"/>
<path d="" fill="#FCFDFD" transform="translate(0,0)"/>
<path d="" fill="#FDFEFC" transform="translate(0,0)"/>
<path d="M0 0 C2 1 2 1 2 1 Z " fill="#FCFAFB" transform="translate(759,492)"/>
<path d="M0 0 C2 1 2 1 2 1 Z " fill="#FCFBFC" transform="translate(756,492)"/>
<path d="" fill="#FEFCFC" transform="translate(0,0)"/>
<path d="M0 0 C2 1 2 1 2 1 Z " fill="#FCFCFC" transform="translate(638,491)"/>
<path d="M0 0 C2 1 2 1 2 1 Z " fill="#FBFAFB" transform="translate(628,488)"/>
<path d="" fill="#E5E5E5" transform="translate(0,0)"/>
<path d="" fill="#F0F1F1" transform="translate(0,0)"/>
<path d="" fill="#FDFFFE" transform="translate(0,0)"/>
<path d="M0 0 C2 1 2 1 2 1 Z " fill="#FDFDFD" transform="translate(604,476)"/>
<path d="M0 0 C2 1 2 1 2 1 Z " fill="#FBFDFB" transform="translate(603,471)"/>
<path d="M0 0 C2 1 2 1 2 1 Z " fill="#FDFCFD" transform="translate(599,470)"/>
<path d="" fill="#FDFDFD" transform="translate(0,0)"/>
<path d="M0 0 C2 1 2 1 2 1 Z " fill="#F5F7F6" transform="translate(780,461)"/>
<path d="" fill="#F4F4F5" transform="translate(0,0)"/>
<path d="" fill="#F0F1F0" transform="translate(0,0)"/>
<path d="" fill="#FEFEFD" transform="translate(0,0)"/>
<path d="M0 0 C2 1 2 1 2 1 Z " fill="#F4F3F3" transform="translate(722,424)"/>
<path d="M0 0 C2 1 2 1 2 1 Z " fill="#FDFDFD" transform="translate(630,419)"/>
<path d="M0 0 C2 1 2 1 2 1 Z " fill="#FEFDFD" transform="translate(622,418)"/>
<path d="M0 0 C2 1 2 1 2 1 Z " fill="#FCFDFC" transform="translate(610,417)"/>
<path d="M0 0 C2 1 2 1 2 1 Z " fill="#FFFEFE" transform="translate(642,411)"/>
<path d="M0 0 C2 1 2 1 2 1 Z " fill="#FBFBFB" transform="translate(316,397)"/>
<path d="M0 0 C2 1 2 1 2 1 Z " fill="#FDFCFC" transform="translate(621,396)"/>
<path d="" fill="#FCFCFC" transform="translate(0,0)"/>
<path d="M0 0 C2 1 2 1 2 1 Z " fill="#FDFDFE" transform="translate(616,393)"/>
<path d="M0 0 C2 1 2 1 2 1 Z " fill="#FEFCFC" transform="translate(323,392)"/>
<path d="" fill="#FEFDFE" transform="translate(0,0)"/>
<path d="" fill="#FEFEFC" transform="translate(0,0)"/>
<path d="" fill="#FCFEFD" transform="translate(0,0)"/>
<path d="M0 0 C2 1 2 1 2 1 Z " fill="#FFFFFD" transform="translate(332,385)"/>
<path d="M0 0 C2 1 2 1 2 1 Z " fill="#FBFDFB" transform="translate(337,384)"/>
<path d="M0 0 C2 1 2 1 2 1 Z " fill="#FEFDFC" transform="translate(595,381)"/>
<path d="M0 0 C2 1 2 1 2 1 Z " fill="#D8D9D9" transform="translate(256,381)"/>
<path d="M0 0 C2 1 2 1 2 1 Z " fill="#FBFBFC" transform="translate(352,376)"/>
<path d="M0 0 C2 1 2 1 2 1 Z " fill="#FCFCFC" transform="translate(565,367)"/>
<path d="M0 0 C2 1 2 1 2 1 Z " fill="#F4F4F4" transform="translate(320,329)"/>
<path d="M0 0 C2 1 2 1 2 1 Z " fill="#F6F6F5" transform="translate(322,328)"/>
<path d="" fill="#F6F8F7" transform="translate(0,0)"/>
<path d="" fill="#FEFEFE" transform="translate(0,0)"/>
<path d="" fill="#FDFDFC" transform="translate(0,0)"/>
<path d="M0 0 C2 1 2 1 2 1 Z " fill="#FCFDFC" transform="translate(403,301)"/>
<path d="" fill="#FDFDFD" transform="translate(0,0)"/>
<path d="" fill="#FCFCFA" transform="translate(0,0)"/>
<path d="M0 0 C2 1 2 1 2 1 Z " fill="#EAEAEB" transform="translate(596,276)"/>
<path d="" fill="#FBFAFB" transform="translate(0,0)"/>
<path d="" fill="#FAF9F9" transform="translate(0,0)"/>
<path d="" fill="#FAFBFA" transform="translate(0,0)"/>
<path d="M0 0 C2 1 2 1 2 1 Z " fill="#F3F5F5" transform="translate(345,238)"/>
<path d="" fill="#F3F3F2" transform="translate(0,0)"/>
<path d="" fill="#F3F3F3" transform="translate(0,0)"/>
<path d="M0 0 C2 1 2 1 2 1 Z " fill="#CACACB" transform="translate(461,176)"/>
<path d="" fill="#D1D2D0" transform="translate(0,0)"/>
<path d="" fill="#E1E2DE" transform="translate(0,0)"/>
<path d="" fill="#EAEAE9" transform="translate(0,0)"/>
<path d="" fill="#EBEBED" transform="translate(0,0)"/>
<path d="" fill="#F2F2F1" transform="translate(0,0)"/>
<path d="" fill="#EEEDEE" transform="translate(0,0)"/>
<path d="" fill="#E8E7E8" transform="translate(0,0)"/>
<path d="" fill="#F0F1F1" transform="translate(0,0)"/>
<path d="" fill="#F3F2F1" transform="translate(0,0)"/>
<path d="" fill="#EFF0F0" transform="translate(0,0)"/>
<path d="" fill="#F3F3F2" transform="translate(0,0)"/>
<path d="" fill="#EBECEC" transform="translate(0,0)"/>
<path d="" fill="#EEF1F1" transform="translate(0,0)"/>
<path d="" fill="#F2F2F2" transform="translate(0,0)"/>
<path d="" fill="#F3F4F4" transform="translate(0,0)"/>
<path d="" fill="#F2F2F3" transform="translate(0,0)"/>
<path d="" fill="#F2F3F3" transform="translate(0,0)"/>
<path d="" fill="#F1F1F1" transform="translate(0,0)"/>
<path d="" fill="#F2F1F3" transform="translate(0,0)"/>
<path d="" fill="#F1F2F1" transform="translate(0,0)"/>
<path d="" fill="#F2F2F3" transform="translate(0,0)"/>
<path d="" fill="#EEEEED" transform="translate(0,0)"/>
<path d="" fill="#F2F2F3" transform="translate(0,0)"/>
<path d="" fill="#F0F2F1" transform="translate(0,0)"/>
<path d="" fill="#F0F3F3" transform="translate(0,0)"/>
<path d="" fill="#F0F0EE" transform="translate(0,0)"/>
<path d="" fill="#EEEDEE" transform="translate(0,0)"/>
<path d="" fill="#EFEFEE" transform="translate(0,0)"/>
<path d="" fill="#EEEDED" transform="translate(0,0)"/>
<path d="" fill="#F1F1F0" transform="translate(0,0)"/>
<path d="" fill="#EDEEED" transform="translate(0,0)"/>
<path d="" fill="#F1F1EF" transform="translate(0,0)"/>
<path d="" fill="#F2F1F3" transform="translate(0,0)"/>
<path d="" fill="#F1F0EF" transform="translate(0,0)"/>
<path d="" fill="#F2F3F2" transform="translate(0,0)"/>
<path d="" fill="#F2F1F1" transform="translate(0,0)"/>
<path d="" fill="#F2F2F1" transform="translate(0,0)"/>
<path d="" fill="#F2F3F3" transform="translate(0,0)"/>
<path d="" fill="#F0F0EF" transform="translate(0,0)"/>
<path d="" fill="#F2F3F2" transform="translate(0,0)"/>
<path d="" fill="#F0F2F1" transform="translate(0,0)"/>
<path d="" fill="#F0F2F3" transform="translate(0,0)"/>
<path d="" fill="#F0F1F0" transform="translate(0,0)"/>
<path d="" fill="#EEEDEE" transform="translate(0,0)"/>
<path d="" fill="#F1F1F1" transform="translate(0,0)"/>
<path d="" fill="#F1F0EF" transform="translate(0,0)"/>
<path d="" fill="#EFEFF0" transform="translate(0,0)"/>
<path d="" fill="#F1F1F1" transform="translate(0,0)"/>
<path d="" fill="#F1F1F2" transform="translate(0,0)"/>
<path d="" fill="#EEF0EF" transform="translate(0,0)"/>
<path d="" fill="#EFEDEB" transform="translate(0,0)"/>
<path d="" fill="#EDEBEC" transform="translate(0,0)"/>
<path d="" fill="#F2F2EF" transform="translate(0,0)"/>
<path d="" fill="#F2F4F3" transform="translate(0,0)"/>
<path d="" fill="#EFEEED" transform="translate(0,0)"/>
<path d="" fill="#EDEEEE" transform="translate(0,0)"/>
<path d="" fill="#F0F0F0" transform="translate(0,0)"/>
<path d="" fill="#F1F2F2" transform="translate(0,0)"/>
<path d="" fill="#EDEFED" transform="translate(0,0)"/>
<path d="" fill="#F0F1F1" transform="translate(0,0)"/>
<path d="" fill="#EFEFEE" transform="translate(0,0)"/>
<path d="" fill="#F6F7F6" transform="translate(0,0)"/>
<path d="" fill="#EFEFEF" transform="translate(0,0)"/>
<path d="" fill="#F8F5F7" transform="translate(0,0)"/>
<path d="" fill="#EFEDEF" transform="translate(0,0)"/>
<path d="" fill="#F1F1F0" transform="translate(0,0)"/>
<path d="" fill="#F6F7F6" transform="translate(0,0)"/>
<path d="" fill="#F6F4F6" transform="translate(0,0)"/>
<path d="" fill="#F0F0F2" transform="translate(0,0)"/>
<path d="" fill="#F0F2F0" transform="translate(0,0)"/>
<path d="" fill="#F9F7F7" transform="translate(0,0)"/>
<path d="" fill="#ECEDED" transform="translate(0,0)"/>
<path d="" fill="#F2F2F2" transform="translate(0,0)"/>
<path d="" fill="#F1F2F2" transform="translate(0,0)"/>
<path d="" fill="#FAF7F8" transform="translate(0,0)"/>
<path d="" fill="#FBFCFB" transform="translate(0,0)"/>
<path d="" fill="#FCFDFD" transform="translate(0,0)"/>
<path d="" fill="#FAFAFA" transform="translate(0,0)"/>
<path d="" fill="#FBFBFA" transform="translate(0,0)"/>
<path d="" fill="#F9F8FA" transform="translate(0,0)"/>
<path d="" fill="#FBFCFB" transform="translate(0,0)"/>
<path d="" fill="#ECEBED" transform="translate(0,0)"/>
<path d="" fill="#FAFCFB" transform="translate(0,0)"/>
<path d="" fill="#FEFEFE" transform="translate(0,0)"/>
<path d="" fill="#FDFDFE" transform="translate(0,0)"/>
<path d="" fill="#FCFEFD" transform="translate(0,0)"/>
<path d="" fill="#FBFCFB" transform="translate(0,0)"/>
<path d="" fill="#FEFDFD" transform="translate(0,0)"/>
<path d="" fill="#F1F1F0" transform="translate(0,0)"/>
<path d="" fill="#FEFDFC" transform="translate(0,0)"/>
<path d="" fill="#FEFDFE" transform="translate(0,0)"/>
<path d="" fill="#F9F8F7" transform="translate(0,0)"/>
<path d="" fill="#FBFDFD" transform="translate(0,0)"/>
<path d="" fill="#FDFFFC" transform="translate(0,0)"/>
<path d="" fill="#FDFDFE" transform="translate(0,0)"/>
<path d="" fill="#FAF8F8" transform="translate(0,0)"/>
<path d="" fill="#F1F0F0" transform="translate(0,0)"/>
<path d="" fill="#FFFEFE" transform="translate(0,0)"/>
<path d="" fill="#FFFFFF" transform="translate(0,0)"/>
<path d="" fill="#F1F4F1" transform="translate(0,0)"/>
<path d="" fill="#FFFEFE" transform="translate(0,0)"/>
<path d="" fill="#F1F2F3" transform="translate(0,0)"/>
<path d="" fill="#FFFFFD" transform="translate(0,0)"/>
<path d="" fill="#FFFEFE" transform="translate(0,0)"/>
<path d="" fill="#FBFDFA" transform="translate(0,0)"/>
<path d="" fill="#FEFAFB" transform="translate(0,0)"/>
<path d="" fill="#FFFFFD" transform="translate(0,0)"/>
<path d="" fill="#E9E8EA" transform="translate(0,0)"/>
<path d="" fill="#E8E9E9" transform="translate(0,0)"/>
<path d="" fill="#FBFDFE" transform="translate(0,0)"/>
<path d="" fill="#FCF9FB" transform="translate(0,0)"/>
<path d="" fill="#F3F3F5" transform="translate(0,0)"/>
<path d="" fill="#FBFDFA" transform="translate(0,0)"/>
<path d="" fill="#FEFDFC" transform="translate(0,0)"/>
<path d="" fill="#EFF2F0" transform="translate(0,0)"/>
<path d="" fill="#EFEEEC" transform="translate(0,0)"/>
<path d="" fill="#FBFCFB" transform="translate(0,0)"/>
<path d="" fill="#FBFCFB" transform="translate(0,0)"/>
<path d="" fill="#FCFCFB" transform="translate(0,0)"/>
<path d="" fill="#F2F3F3" transform="translate(0,0)"/>
<path d="" fill="#EDEEED" transform="translate(0,0)"/>
<path d="" fill="#EEEEEF" transform="translate(0,0)"/>
<path d="" fill="#F4F6F7" transform="translate(0,0)"/>
<path d="" fill="#F3F3F3" transform="translate(0,0)"/>
<path d="" fill="#F3F4F3" transform="translate(0,0)"/>
<path d="" fill="#FEFDFA" transform="translate(0,0)"/>
<path d="" fill="#F4F3F5" transform="translate(0,0)"/>
<path d="" fill="#FDFEFC" transform="translate(0,0)"/>
<path d="" fill="#FFFEFD" transform="translate(0,0)"/>
<path d="" fill="#FFFEFC" transform="translate(0,0)"/>
<path d="" fill="#FEFCFE" transform="translate(0,0)"/>
<path d="" fill="#F4F5F5" transform="translate(0,0)"/>
<path d="" fill="#F6F7F7" transform="translate(0,0)"/>
<path d="" fill="#FDFFFD" transform="translate(0,0)"/>
<path d="" fill="#F9F9F9" transform="translate(0,0)"/>
<path d="" fill="#FDFBFC" transform="translate(0,0)"/>
<path d="" fill="#FDFDFD" transform="translate(0,0)"/>
<path d="" fill="#FAFBFC" transform="translate(0,0)"/>
<path d="" fill="#FCFCFD" transform="translate(0,0)"/>
<path d="" fill="#FEFDFD" transform="translate(0,0)"/>
<path d="" fill="#E3E3E1" transform="translate(0,0)"/>
<path d="" fill="#FCFEFF" transform="translate(0,0)"/>
<path d="" fill="#ECEDEE" transform="translate(0,0)"/>
<path d="" fill="#FDFCFE" transform="translate(0,0)"/>
<path d="" fill="#FBFBFD" transform="translate(0,0)"/>
<path d="" fill="#FAFBFA" transform="translate(0,0)"/>
<path d="" fill="#F1F0F0" transform="translate(0,0)"/>
<path d="" fill="#FFFBFD" transform="translate(0,0)"/>
<path d="" fill="#FCFDFD" transform="translate(0,0)"/>
<path d="" fill="#F9F8F7" transform="translate(0,0)"/>
<path d="" fill="#E6E6E6" transform="translate(0,0)"/>
<path d="" fill="#F9F9FA" transform="translate(0,0)"/>
<path d="" fill="#E4E5E6" transform="translate(0,0)"/>
<path d="" fill="#F4F3F3" transform="translate(0,0)"/>
<path d="" fill="#F5F5F4" transform="translate(0,0)"/>
<path d="" fill="#FBFAFA" transform="translate(0,0)"/>
<path d="" fill="#F5F7F5" transform="translate(0,0)"/>
<path d="" fill="#FCFAFB" transform="translate(0,0)"/>
<path d="" fill="#F9F9F9" transform="translate(0,0)"/>
<path d="" fill="#F7F6F6" transform="translate(0,0)"/>
<path d="" fill="#FCFCFD" transform="translate(0,0)"/>
<path d="" fill="#FAF8F7" transform="translate(0,0)"/>
<path d="" fill="#F9F8F8" transform="translate(0,0)"/>
<path d="" fill="#FCFCFC" transform="translate(0,0)"/>
<path d="" fill="#F9FBFA" transform="translate(0,0)"/>
<path d="" fill="#FAFBFA" transform="translate(0,0)"/>
<path d="" fill="#FBFCFB" transform="translate(0,0)"/>
<path d="" fill="#F9F8F8" transform="translate(0,0)"/>
<path d="" fill="#FCFCFE" transform="translate(0,0)"/>
<path d="" fill="#F7FAF9" transform="translate(0,0)"/>
<path d="" fill="#FAFAFA" transform="translate(0,0)"/>
<path d="" fill="#FDFDFB" transform="translate(0,0)"/>
<path d="" fill="#FBF9FA" transform="translate(0,0)"/>
<path d="" fill="#FDFCFF" transform="translate(0,0)"/>
<path d="" fill="#FCFDFE" transform="translate(0,0)"/>
<path d="" fill="#FCFCFD" transform="translate(0,0)"/>
<path d="" fill="#FDFCFD" transform="translate(0,0)"/>
<path d="" fill="#F8FBF8" transform="translate(0,0)"/>
<path d="" fill="#FCFAFA" transform="translate(0,0)"/>
<path d="" fill="#FDFCFD" transform="translate(0,0)"/>
<path d="" fill="#F8FBF9" transform="translate(0,0)"/>
<path d="" fill="#F9FAFB" transform="translate(0,0)"/>
<path d="" fill="#FBFCFB" transform="translate(0,0)"/>
<path d="" fill="#FFFDFE" transform="translate(0,0)"/>
<path d="" fill="#FAFBFB" transform="translate(0,0)"/>
<path d="" fill="#FEFCFC" transform="translate(0,0)"/>
<path d="" fill="#FEFEFE" transform="translate(0,0)"/>
<path d="" fill="#FEFCFD" transform="translate(0,0)"/>
<path d="" fill="#FBFAFA" transform="translate(0,0)"/>
<path d="" fill="#FEFDFF" transform="translate(0,0)"/>
<path d="" fill="#F9FAF9" transform="translate(0,0)"/>
<path d="" fill="#F2F2EE" transform="translate(0,0)"/>
<path d="" fill="#F9FAFA" transform="translate(0,0)"/>
<path d="" fill="#FCFCFD" transform="translate(0,0)"/>
<path d="" fill="#FBFBFC" transform="translate(0,0)"/>
<path d="" fill="#F7F8F6" transform="translate(0,0)"/>
<path d="" fill="#FCFCFE" transform="translate(0,0)"/>
<path d="" fill="#FDFCFE" transform="translate(0,0)"/>
<path d="" fill="#FBFBFD" transform="translate(0,0)"/>
<path d="" fill="#F9F9F8" transform="translate(0,0)"/>
<path d="" fill="#FDFEFD" transform="translate(0,0)"/>
<path d="" fill="#ECEDED" transform="translate(0,0)"/>
<path d="" fill="#FDFDFD" transform="translate(0,0)"/>
<path d="" fill="#FBFCFB" transform="translate(0,0)"/>
<path d="" fill="#FBFCFB" transform="translate(0,0)"/>
<path d="" fill="#FCFAFC" transform="translate(0,0)"/>
<path d="" fill="#FDFBFC" transform="translate(0,0)"/>
<path d="" fill="#FDFDFC" transform="translate(0,0)"/>
<path d="" fill="#FCFDFE" transform="translate(0,0)"/>
<path d="" fill="#FCFEFF" transform="translate(0,0)"/>
<path d="" fill="#FDFCFD" transform="translate(0,0)"/>
<path d="" fill="#FDFFFD" transform="translate(0,0)"/>
<path d="" fill="#FBFCFB" transform="translate(0,0)"/>
<path d="" fill="#FDFCFD" transform="translate(0,0)"/>
<path d="" fill="#FDFDFC" transform="translate(0,0)"/>
<path d="" fill="#FDFDFE" transform="translate(0,0)"/>
<path d="" fill="#FDFEFD" transform="translate(0,0)"/>
<path d="" fill="#FDFDFE" transform="translate(0,0)"/>
<path d="" fill="#FDFEFD" transform="translate(0,0)"/>
<path d="" fill="#FCFCFC" transform="translate(0,0)"/>
<path d="" fill="#FDFDFE" transform="translate(0,0)"/>
<path d="" fill="#FBFCFC" transform="translate(0,0)"/>
<path d="" fill="#FCFBFC" transform="translate(0,0)"/>
<path d="" fill="#FEFFFF" transform="translate(0,0)"/>
<path d="" fill="#FDFEFD" transform="translate(0,0)"/>
<path d="" fill="#FCFBFC" transform="translate(0,0)"/>
<path d="" fill="#FCFEFD" transform="translate(0,0)"/>
<path d="" fill="#FCFDFE" transform="translate(0,0)"/>
<path d="" fill="#E9E8E7" transform="translate(0,0)"/>
<path d="" fill="#FCFCFD" transform="translate(0,0)"/>
<path d="" fill="#FCFEFC" transform="translate(0,0)"/>
<path d="" fill="#FDFEFF" transform="translate(0,0)"/>
<path d="" fill="#FDFEFC" transform="translate(0,0)"/>
<path d="" fill="#FBFAF9" transform="translate(0,0)"/>
<path d="" fill="#FDFDFB" transform="translate(0,0)"/>
<path d="" fill="#EEEEED" transform="translate(0,0)"/>
<path d="" fill="#FDFCFB" transform="translate(0,0)"/>
<path d="" fill="#FDFDFD" transform="translate(0,0)"/>
<path d="" fill="#FDFAFB" transform="translate(0,0)"/>
<path d="" fill="#EEEEED" transform="translate(0,0)"/>
<path d="" fill="#FDFEFF" transform="translate(0,0)"/>
<path d="" fill="#FBFBFB" transform="translate(0,0)"/>
<path d="" fill="#FCFCFD" transform="translate(0,0)"/>
<path d="" fill="#FDFFFF" transform="translate(0,0)"/>
<path d="" fill="#FBFCFC" transform="translate(0,0)"/>
<path d="" fill="#FDFDFD" transform="translate(0,0)"/>
<path d="" fill="#FFFEFC" transform="translate(0,0)"/>
<path d="" fill="#FCFBFE" transform="translate(0,0)"/>
<path d="" fill="#FDFDFE" transform="translate(0,0)"/>
<path d="" fill="#EEF0EE" transform="translate(0,0)"/>
<path d="" fill="#FBFCFB" transform="translate(0,0)"/>
<path d="" fill="#FFFFFF" transform="translate(0,0)"/>
<path d="" fill="#EEEEEE" transform="translate(0,0)"/>
<path d="" fill="#FAFCFA" transform="translate(0,0)"/>
<path d="" fill="#FEFDFC" transform="translate(0,0)"/>
<path d="" fill="#FBFCFC" transform="translate(0,0)"/>
<path d="" fill="#FDFDFC" transform="translate(0,0)"/>
<path d="" fill="#FBFCFD" transform="translate(0,0)"/>
<path d="" fill="#FAFCFD" transform="translate(0,0)"/>
<path d="" fill="#FDFCFE" transform="translate(0,0)"/>
<path d="" fill="#FDFCFD" transform="translate(0,0)"/>
<path d="" fill="#FCFDFD" transform="translate(0,0)"/>
<path d="" fill="#FEFEFE" transform="translate(0,0)"/>
<path d="" fill="#FDFFFF" transform="translate(0,0)"/>
<path d="" fill="#FDFBFD" transform="translate(0,0)"/>
<path d="" fill="#F0F1EF" transform="translate(0,0)"/>
<path d="" fill="#FFFEFF" transform="translate(0,0)"/>
<path d="" fill="#F8FAF7" transform="translate(0,0)"/>
<path d="" fill="#FBFBF9" transform="translate(0,0)"/>
<path d="" fill="#FEFCFC" transform="translate(0,0)"/>
<path d="" fill="#FCFEFE" transform="translate(0,0)"/>
<path d="" fill="#FDFEFE" transform="translate(0,0)"/>
<path d="" fill="#FBFCFA" transform="translate(0,0)"/>
<path d="" fill="#FEFCFD" transform="translate(0,0)"/>
<path d="" fill="#FAFBFC" transform="translate(0,0)"/>
<path d="" fill="#FDFDFD" transform="translate(0,0)"/>
<path d="" fill="#FDFEFE" transform="translate(0,0)"/>
<path d="" fill="#FEFEFD" transform="translate(0,0)"/>
<path d="" fill="#FCFCFD" transform="translate(0,0)"/>
<path d="" fill="#F1F1F0" transform="translate(0,0)"/>
<path d="" fill="#FFFDFD" transform="translate(0,0)"/>
<path d="" fill="#FEFDFE" transform="translate(0,0)"/>
<path d="" fill="#FEFDFE" transform="translate(0,0)"/>
<path d="" fill="#FEFEFE" transform="translate(0,0)"/>
<path d="" fill="#FEFDFD" transform="translate(0,0)"/>
<path d="" fill="#FDFCFD" transform="translate(0,0)"/>
<path d="" fill="#FDFEFD" transform="translate(0,0)"/>
<path d="" fill="#FEFCFE" transform="translate(0,0)"/>
<path d="" fill="#FDFEFD" transform="translate(0,0)"/>
<path d="" fill="#FDFCFD" transform="translate(0,0)"/>
<path d="" fill="#FDFDFC" transform="translate(0,0)"/>
<path d="" fill="#FFFDFE" transform="translate(0,0)"/>
<path d="" fill="#FEFEFE" transform="translate(0,0)"/>
<path d="" fill="#F8F8F9" transform="translate(0,0)"/>
<path d="" fill="#F7F7F6" transform="translate(0,0)"/>
<path d="" fill="#DCDEDE" transform="translate(0,0)"/>
<path d="" fill="#F1F2F1" transform="translate(0,0)"/>
<path d="" fill="#F1F0F0" transform="translate(0,0)"/>
<path d="" fill="#F1EFEF" transform="translate(0,0)"/>
<path d="" fill="#F5F4F4" transform="translate(0,0)"/>
<path d="" fill="#F3F6F5" transform="translate(0,0)"/>
<path d="" fill="#D3D4D3" transform="translate(0,0)"/>
<path d="" fill="#F3F5F5" transform="translate(0,0)"/>
<path d="" fill="#FFFDFD" transform="translate(0,0)"/>
<path d="" fill="#F4F3F4" transform="translate(0,0)"/>
<path d="" fill="#FEFFFE" transform="translate(0,0)"/>
<path d="" fill="#F5F4F4" transform="translate(0,0)"/>
<path d="" fill="#F4F3F4" transform="translate(0,0)"/>
<path d="" fill="#F1F1F1" transform="translate(0,0)"/>
<path d="" fill="#F0F0F0" transform="translate(0,0)"/>
<path d="" fill="#F2F4F3" transform="translate(0,0)"/>
<path d="" fill="#FFFFFF" transform="translate(0,0)"/>
<path d="" fill="#F4F4F4" transform="translate(0,0)"/>
<path d="" fill="#FFFEFE" transform="translate(0,0)"/>
<path d="" fill="#F6F4F5" transform="translate(0,0)"/>
<path d="" fill="#CACCCA" transform="translate(0,0)"/>
<path d="" fill="#F6F6F6" transform="translate(0,0)"/>
<path d="" fill="#F5F6F7" transform="translate(0,0)"/>
<path d="" fill="#F9F9FA" transform="translate(0,0)"/>
<path d="" fill="#F5F6F4" transform="translate(0,0)"/>
<path d="" fill="#F2F5F3" transform="translate(0,0)"/>
<path d="" fill="#F3F4F4" transform="translate(0,0)"/>
<path d="" fill="#FFFEFF" transform="translate(0,0)"/>
<path d="" fill="#FCFEFD" transform="translate(0,0)"/>
<path d="" fill="#FCFCFC" transform="translate(0,0)"/>
<path d="" fill="#F1EFF0" transform="translate(0,0)"/>
<path d="" fill="#FDFFFE" transform="translate(0,0)"/>
<path d="" fill="#FAFCF9" transform="translate(0,0)"/>
<path d="" fill="#FAFBFA" transform="translate(0,0)"/>
<path d="" fill="#F8F7FB" transform="translate(0,0)"/>
<path d="" fill="#F9FCFB" transform="translate(0,0)"/>
<path d="" fill="#FEFFFE" transform="translate(0,0)"/>
<path d="" fill="#FEFFFF" transform="translate(0,0)"/>
<path d="" fill="#FFFDFF" transform="translate(0,0)"/>
<path d="" fill="#FDFEFF" transform="translate(0,0)"/>
<path d="" fill="#FFFDFE" transform="translate(0,0)"/>
<path d="" fill="#FDFCFD" transform="translate(0,0)"/>
<path d="" fill="#F9F9F9" transform="translate(0,0)"/>
<path d="" fill="#FFFDFF" transform="translate(0,0)"/>
<path d="" fill="#FFFEFD" transform="translate(0,0)"/>
<path d="" fill="#FEFEFD" transform="translate(0,0)"/>
<path d="" fill="#FBFAFC" transform="translate(0,0)"/>
<path d="" fill="#FEFEFF" transform="translate(0,0)"/>
<path d="" fill="#FBFAFB" transform="translate(0,0)"/>
<path d="" fill="#FDFBFD" transform="translate(0,0)"/>
<path d="" fill="#FDFDFE" transform="translate(0,0)"/>
<path d="" fill="#FCFEFF" transform="translate(0,0)"/>
<path d="" fill="#FCFDFA" transform="translate(0,0)"/>
<path d="" fill="#FCFDFC" transform="translate(0,0)"/>
<path d="" fill="#FEFDFE" transform="translate(0,0)"/>
<path d="" fill="#FAFBFB" transform="translate(0,0)"/>
<path d="" fill="#F6F9F9" transform="translate(0,0)"/>
<path d="" fill="#FAFDFB" transform="translate(0,0)"/>
<path d="" fill="#F9FAFC" transform="translate(0,0)"/>
<path d="" fill="#FDFCFC" transform="translate(0,0)"/>
<path d="" fill="#FCFEFE" transform="translate(0,0)"/>
<path d="" fill="#FCFEFD" transform="translate(0,0)"/>
<path d="" fill="#FBFBFB" transform="translate(0,0)"/>
<path d="" fill="#FDFDFE" transform="translate(0,0)"/>
<path d="" fill="#FCFDFB" transform="translate(0,0)"/>
<path d="" fill="#F3F4F5" transform="translate(0,0)"/>
<path d="" fill="#FCFBFD" transform="translate(0,0)"/>
<path d="" fill="#FDFEFD" transform="translate(0,0)"/>
<path d="" fill="#FDFCFB" transform="translate(0,0)"/>
<path d="" fill="#FDFCFC" transform="translate(0,0)"/>
<path d="" fill="#FDFFFE" transform="translate(0,0)"/>
<path d="" fill="#E6E6E4" transform="translate(0,0)"/>
<path d="" fill="#FFFEFD" transform="translate(0,0)"/>
<path d="" fill="#EBEAEA" transform="translate(0,0)"/>
<path d="" fill="#FBFBFC" transform="translate(0,0)"/>
<path d="" fill="#FEFEFE" transform="translate(0,0)"/>
<path d="" fill="#FDFCFD" transform="translate(0,0)"/>
<path d="" fill="#FFFDFE" transform="translate(0,0)"/>
<path d="" fill="#FEFFFE" transform="translate(0,0)"/>
<path d="" fill="#FDFCFC" transform="translate(0,0)"/>
<path d="" fill="#F9F9F8" transform="translate(0,0)"/>
<path d="" fill="#ECEEEF" transform="translate(0,0)"/>
<path d="" fill="#FFFEFE" transform="translate(0,0)"/>
<path d="" fill="#FBFDF8" transform="translate(0,0)"/>
<path d="" fill="#FAF7F9" transform="translate(0,0)"/>
<path d="" fill="#FCFCFD" transform="translate(0,0)"/>
<path d="" fill="#FBFBFC" transform="translate(0,0)"/>
<path d="" fill="#FAFBF8" transform="translate(0,0)"/>
<path d="" fill="#FEFDFD" transform="translate(0,0)"/>
<path d="" fill="#FEFDFF" transform="translate(0,0)"/>
<path d="" fill="#FEFCFD" transform="translate(0,0)"/>
<path d="" fill="#FDFDFD" transform="translate(0,0)"/>
<path d="" fill="#FDFCFD" transform="translate(0,0)"/>
<path d="" fill="#FEFEFC" transform="translate(0,0)"/>
<path d="" fill="#FCFDFD" transform="translate(0,0)"/>
<path d="" fill="#FEFCFD" transform="translate(0,0)"/>
<path d="" fill="#FDFCFD" transform="translate(0,0)"/>
<path d="" fill="#FEFCFE" transform="translate(0,0)"/>
<path d="" fill="#FFFEFF" transform="translate(0,0)"/>
<path d="" fill="#FCFDFB" transform="translate(0,0)"/>
<path d="" fill="#FDFCFC" transform="translate(0,0)"/>
<path d="" fill="#FDFCFC" transform="translate(0,0)"/>
<path d="" fill="#DDDEDE" transform="translate(0,0)"/>
<path d="" fill="#FFFBFD" transform="translate(0,0)"/>
<path d="" fill="#E2E0E0" transform="translate(0,0)"/>
<path d="" fill="#DADDDC" transform="translate(0,0)"/>
<path d="" fill="#FCFEFC" transform="translate(0,0)"/>
<path d="" fill="#FDFEFD" transform="translate(0,0)"/>
<path d="" fill="#E8E9E7" transform="translate(0,0)"/>
<path d="" fill="#E8E6E5" transform="translate(0,0)"/>
<path d="" fill="#F8F8F7" transform="translate(0,0)"/>
<path d="" fill="#FBFCFB" transform="translate(0,0)"/>
<path d="" fill="#F8F9F8" transform="translate(0,0)"/>
<path d="" fill="#EBEBEA" transform="translate(0,0)"/>
<path d="" fill="#FAFAF9" transform="translate(0,0)"/>
<path d="" fill="#ECEBEB" transform="translate(0,0)"/>
<path d="" fill="#FAFAFA" transform="translate(0,0)"/>
<path d="" fill="#FEFEFE" transform="translate(0,0)"/>
<path d="" fill="#FBFBFA" transform="translate(0,0)"/>
<path d="" fill="#FCFDFB" transform="translate(0,0)"/>
<path d="" fill="#FCFEFE" transform="translate(0,0)"/>
<path d="" fill="#EDECEC" transform="translate(0,0)"/>
<path d="" fill="#FCFCFD" transform="translate(0,0)"/>
<path d="" fill="#F9FBFA" transform="translate(0,0)"/>
<path d="" fill="#FEFEFE" transform="translate(0,0)"/>
<path d="" fill="#FDFEFD" transform="translate(0,0)"/>
<path d="" fill="#FCFCFD" transform="translate(0,0)"/>
<path d="" fill="#FDFFFF" transform="translate(0,0)"/>
<path d="" fill="#FCFCFC" transform="translate(0,0)"/>
<path d="" fill="#FEFBFD" transform="translate(0,0)"/>
<path d="" fill="#FEFEFD" transform="translate(0,0)"/>
<path d="" fill="#FDFBFD" transform="translate(0,0)"/>
<path d="" fill="#FDFEFD" transform="translate(0,0)"/>
<path d="" fill="#FCFFFE" transform="translate(0,0)"/>
<path d="" fill="#FCFEFE" transform="translate(0,0)"/>
<path d="" fill="#FCFEFC" transform="translate(0,0)"/>
<path d="" fill="#FCFDFB" transform="translate(0,0)"/>
<path d="" fill="#FCFDFC" transform="translate(0,0)"/>
<path d="" fill="#FEFDFD" transform="translate(0,0)"/>
<path d="" fill="#FDFEFD" transform="translate(0,0)"/>
<path d="" fill="#FDFBFB" transform="translate(0,0)"/>
<path d="" fill="#FBFCFC" transform="translate(0,0)"/>
<path d="" fill="#EDEEEE" transform="translate(0,0)"/>
<path d="" fill="#FEFCFC" transform="translate(0,0)"/>
<path d="" fill="#FEFCFC" transform="translate(0,0)"/>
<path d="" fill="#FDFDFD" transform="translate(0,0)"/>
<path d="" fill="#FAF9F9" transform="translate(0,0)"/>
<path d="" fill="#FCFDFC" transform="translate(0,0)"/>
<path d="" fill="#EBEAE9" transform="translate(0,0)"/>
<path d="" fill="#FCFBF8" transform="translate(0,0)"/>
<path d="" fill="#ECEEEB" transform="translate(0,0)"/>
<path d="" fill="#FBFBF9" transform="translate(0,0)"/>
<path d="" fill="#FBFBFB" transform="translate(0,0)"/>
<path d="" fill="#FCFAFC" transform="translate(0,0)"/>
<path d="" fill="#FCFAFC" transform="translate(0,0)"/>
<path d="" fill="#FAFAFC" transform="translate(0,0)"/>
<path d="" fill="#FEFFFD" transform="translate(0,0)"/>
<path d="" fill="#FCFCFE" transform="translate(0,0)"/>
<path d="" fill="#EBEBEC" transform="translate(0,0)"/>
<path d="" fill="#FBFCFA" transform="translate(0,0)"/>
<path d="" fill="#FCFAFC" transform="translate(0,0)"/>
<path d="" fill="#F8FAF9" transform="translate(0,0)"/>
<path d="" fill="#FAFCFB" transform="translate(0,0)"/>
<path d="" fill="#FBFBFA" transform="translate(0,0)"/>
<path d="" fill="#FBFBFA" transform="translate(0,0)"/>
<path d="" fill="#FDFFFC" transform="translate(0,0)"/>
<path d="" fill="#FAFAFA" transform="translate(0,0)"/>
<path d="" fill="#E8EAEA" transform="translate(0,0)"/>
<path d="" fill="#F8F6F6" transform="translate(0,0)"/>
<path d="" fill="#FEFDFC" transform="translate(0,0)"/>
<path d="" fill="#F8F7F8" transform="translate(0,0)"/>
<path d="" fill="#F9F8FA" transform="translate(0,0)"/>
<path d="" fill="#F9F9F8" transform="translate(0,0)"/>
<path d="" fill="#F9F8F9" transform="translate(0,0)"/>
<path d="" fill="#FCFDFD" transform="translate(0,0)"/>
<path d="" fill="#F9F6F8" transform="translate(0,0)"/>
<path d="" fill="#EBEBEC" transform="translate(0,0)"/>
<path d="" fill="#EBECEA" transform="translate(0,0)"/>
<path d="" fill="#FDFAFC" transform="translate(0,0)"/>
<path d="" fill="#F9F9FA" transform="translate(0,0)"/>
<path d="" fill="#EBE9E9" transform="translate(0,0)"/>
<path d="" fill="#F9FAF9" transform="translate(0,0)"/>
<path d="" fill="#F5F4F5" transform="translate(0,0)"/>
<path d="" fill="#F8F9FA" transform="translate(0,0)"/>
<path d="" fill="#F5F4F6" transform="translate(0,0)"/>
<path d="" fill="#EBEAEB" transform="translate(0,0)"/>
<path d="" fill="#FCFBFB" transform="translate(0,0)"/>
<path d="" fill="#F9F9F8" transform="translate(0,0)"/>
<path d="" fill="#FAFBF9" transform="translate(0,0)"/>
<path d="" fill="#E8E8E8" transform="translate(0,0)"/>
<path d="" fill="#FAFAFA" transform="translate(0,0)"/>
<path d="" fill="#FAFCFA" transform="translate(0,0)"/>
<path d="" fill="#E8EAE9" transform="translate(0,0)"/>
<path d="" fill="#F5F5F5" transform="translate(0,0)"/>
<path d="" fill="#F9FAFA" transform="translate(0,0)"/>
<path d="" fill="#F4F6F5" transform="translate(0,0)"/>
<path d="" fill="#E6E5E8" transform="translate(0,0)"/>
<path d="" fill="#FAF9F9" transform="translate(0,0)"/>
<path d="" fill="#F8F7F7" transform="translate(0,0)"/>
<path d="" fill="#F8F7F8" transform="translate(0,0)"/>
<path d="" fill="#F4F5F3" transform="translate(0,0)"/>
<path d="" fill="#F1F2F2" transform="translate(0,0)"/>
<path d="" fill="#F7F7F8" transform="translate(0,0)"/>
<path d="" fill="#F5F3F3" transform="translate(0,0)"/>
<path d="" fill="#EBEBEB" transform="translate(0,0)"/>
<path d="" fill="#F2F1F3" transform="translate(0,0)"/>
<path d="" fill="#F7F5F6" transform="translate(0,0)"/>
<path d="" fill="#F2F2F1" transform="translate(0,0)"/>
<path d="" fill="#F8F9F7" transform="translate(0,0)"/>
<path d="" fill="#F5F4F3" transform="translate(0,0)"/>
<path d="" fill="#F6F5F5" transform="translate(0,0)"/>
<path d="" fill="#F1EFF0" transform="translate(0,0)"/>
<path d="" fill="#E8E8E9" transform="translate(0,0)"/>
<path d="" fill="#EEF0EE" transform="translate(0,0)"/>
<path d="" fill="#F3F5F3" transform="translate(0,0)"/>
<path d="" fill="#E6E5E4" transform="translate(0,0)"/>
<path d="" fill="#F2F1F0" transform="translate(0,0)"/>
<path d="" fill="#EDEDEE" transform="translate(0,0)"/>
<path d="" fill="#E2E2E1" transform="translate(0,0)"/>
<path d="" fill="#EFEFEC" transform="translate(0,0)"/>
<path d="" fill="#ECEEEC" transform="translate(0,0)"/>
<path d="" fill="#F1F0F1" transform="translate(0,0)"/>
<path d="" fill="#F2F3F1" transform="translate(0,0)"/>
<path d="" fill="#E9EAEB" transform="translate(0,0)"/>
<path d="" fill="#ECEBEB" transform="translate(0,0)"/>
<path d="" fill="#F2F1F1" transform="translate(0,0)"/>
<path d="" fill="#ECEBEB" transform="translate(0,0)"/>
<path d="" fill="#E9E9E7" transform="translate(0,0)"/>
<path d="" fill="#EFEDEE" transform="translate(0,0)"/>
<path d="" fill="#EFEFEF" transform="translate(0,0)"/>
<path d="" fill="#E8E7E5" transform="translate(0,0)"/>
<path d="" fill="#EFF1F1" transform="translate(0,0)"/>
<path d="" fill="#F0EFF1" transform="translate(0,0)"/>
<path d="" fill="#E9E8E7" transform="translate(0,0)"/>
<path d="" fill="#E2E2E2" transform="translate(0,0)"/>
<path d="" fill="#EEECED" transform="translate(0,0)"/>
<path d="" fill="#E1E2E0" transform="translate(0,0)"/>
<path d="" fill="#E0E0E0" transform="translate(0,0)"/>
<path d="" fill="#DFE1DF" transform="translate(0,0)"/>
<path d="" fill="#D1D0D0" transform="translate(0,0)"/>
<path d="" fill="#E7E8E8" transform="translate(0,0)"/>
<path d="" fill="#EBE9E7" transform="translate(0,0)"/>
<path d="" fill="#E4E4E3" transform="translate(0,0)"/>
<path d="" fill="#CFD1D1" transform="translate(0,0)"/>
<path d="" fill="#DCDDDC" transform="translate(0,0)"/>
<path d="" fill="#DADAD9" transform="translate(0,0)"/>
<path d="" fill="#D3D4D2" transform="translate(0,0)"/>
<path d="" fill="#ACACAB" transform="translate(0,0)"/>
</svg>
